<svg width="34" height="35" viewBox="0 0 34 35" fill="none" xmlns="http://www.w3.org/2000/svg">
<circle cx="17.2837" cy="17.7148" r="16.4663" stroke="white" stroke-width="0.5"/>
<path d="M26.521 12.8598C26.2904 12.003 25.6148 11.3275 24.7581 11.0968C23.1929 10.6685 16.932 10.6685 16.932 10.6685C16.932 10.6685 10.6712 10.6685 9.10597 11.0804C8.2657 11.311 7.57371 12.003 7.34305 12.8598C6.93115 14.425 6.93115 17.6707 6.93115 17.6707C6.93115 17.6707 6.93115 20.933 7.34305 22.4817C7.57371 23.3384 8.24923 24.0139 9.10597 24.2446C10.6877 24.673 16.932 24.673 16.932 24.673C16.932 24.673 23.1929 24.673 24.7581 24.2611C25.6148 24.0304 26.2904 23.3549 26.521 22.4982C26.9329 20.933 26.9329 17.6872 26.9329 17.6872C26.9329 17.6872 26.9494 14.425 26.521 12.8598Z" fill="white"/>
<path d="M14.9385 20.6694L20.1449 17.6707L14.9385 14.6721V20.6694Z" fill="#192864"/>
</svg>
