<svg width="34" height="35" viewBox="0 0 34 35" fill="none" xmlns="http://www.w3.org/2000/svg">
<path d="M8.40973 25.812L9.61015 21.4529C8.868 20.1734 8.47867 18.7244 8.48273 17.2431C8.48273 12.6015 12.2787 8.82764 16.9384 8.82764C19.2014 8.82764 21.3264 9.70349 22.9202 11.2938C24.5181 12.884 25.3981 14.999 25.3941 17.2472C25.3941 21.8888 21.5982 25.6627 16.9344 25.6627H16.9303C15.5149 25.6627 14.1239 25.3075 12.887 24.6375L8.40973 25.812ZM13.1019 23.1158L13.3574 23.2692C14.4362 23.9069 15.6731 24.2419 16.9344 24.246H16.9384C20.8114 24.246 23.9666 21.1098 23.9666 17.2512C23.9666 15.3824 23.2366 13.6267 21.9104 12.3028C20.5843 10.9789 18.8161 10.2524 16.9384 10.2524C13.0654 10.2484 9.91026 13.3845 9.91026 17.2431C9.91026 18.563 10.2793 19.8505 10.985 20.9645L11.1512 21.2309L10.4415 23.8101L13.1019 23.1158Z" fill="white"/>
<path d="M8.70581 25.5174L9.86568 21.3076C9.14786 20.0766 8.7707 18.676 8.7707 17.2472C8.77475 12.767 12.4369 9.12231 16.9384 9.12231C19.1243 9.12231 21.1724 9.96992 22.7134 11.5037C24.2545 13.0374 25.1021 15.0798 25.1021 17.2512C25.1021 21.7314 21.436 25.3761 16.9384 25.3761H16.9344C15.5677 25.3761 14.2253 25.0331 13.033 24.3873L8.70581 25.5174Z" fill="#192864"/>
<path d="M8.40973 25.812L9.61015 21.4529C8.868 20.1734 8.47867 18.7244 8.48273 17.2431C8.48273 12.6015 12.2787 8.82764 16.9384 8.82764C19.2014 8.82764 21.3264 9.70349 22.9202 11.2938C24.5181 12.884 25.3981 14.999 25.3941 17.2472C25.3941 21.8888 21.5982 25.6627 16.9344 25.6627H16.9303C15.5149 25.6627 14.1239 25.3075 12.887 24.6375L8.40973 25.812ZM13.1019 23.1158L13.3574 23.2692C14.4362 23.9069 15.6731 24.2419 16.9344 24.246H16.9384C20.8114 24.246 23.9666 21.1098 23.9666 17.2512C23.9666 15.3824 23.2366 13.6267 21.9104 12.3028C20.5843 10.9789 18.8161 10.2524 16.9384 10.2524C13.0654 10.2484 9.91026 13.3845 9.91026 17.2431C9.91026 18.563 10.2793 19.8505 10.985 20.9645L11.1512 21.2309L10.4415 23.8101L13.1019 23.1158Z" fill="white"/>
<path fill-rule="evenodd" clip-rule="evenodd" d="M14.8255 13.7235C14.6673 13.3723 14.501 13.3643 14.351 13.3602C14.2293 13.3562 14.0874 13.3562 13.9454 13.3562C13.8035 13.3562 13.5764 13.4087 13.3817 13.6186C13.1871 13.8284 12.6436 14.337 12.6436 15.3743C12.6436 16.4076 13.402 17.4086 13.5074 17.5498C13.6129 17.6911 14.9715 19.8828 17.1168 20.7263C18.9012 21.4286 19.2662 21.2874 19.6515 21.251C20.0368 21.2147 20.9006 20.7425 21.079 20.25C21.2534 19.7576 21.2534 19.3379 21.2007 19.2491C21.148 19.1603 21.006 19.1078 20.7951 19.0029C20.5842 18.8979 19.546 18.3894 19.3514 18.3167C19.1567 18.2481 19.0148 18.2118 18.8769 18.4216C18.7349 18.6315 18.3294 19.1038 18.2077 19.245C18.0861 19.3863 17.9604 19.4024 17.7495 19.2975C17.5386 19.1926 16.8573 18.9706 16.0502 18.2521C15.4216 17.6951 14.9958 17.0049 14.8741 16.7951C14.7525 16.5852 14.862 16.4722 14.9674 16.3672C15.0607 16.2744 15.1783 16.121 15.2837 15.9999C15.3892 15.8788 15.4257 15.79 15.4946 15.6488C15.5636 15.5075 15.5311 15.3864 15.4784 15.2815C15.4257 15.1806 15.012 14.1392 14.8255 13.7235Z" fill="white"/>
<circle cx="16.9019" cy="17.7148" r="16.4663" stroke="white" stroke-width="0.5"/>
</svg>
