<svg width="34" height="35" viewBox="0 0 34 35" fill="none" xmlns="http://www.w3.org/2000/svg">
<path fill-rule="evenodd" clip-rule="evenodd" d="M9.48145 17.5206C13.7085 15.7425 16.5272 14.5702 17.9375 14.0039C21.9643 12.3867 22.8011 12.1058 23.3464 12.0965C23.4664 12.0945 23.7346 12.1232 23.9083 12.2593C24.055 12.3742 24.0954 12.5295 24.1147 12.6384C24.134 12.7474 24.1581 12.9956 24.1389 13.1896C23.9207 15.4033 22.9765 20.7754 22.4962 23.2549C22.2929 24.304 21.8927 24.6558 21.5052 24.6902C20.6632 24.765 20.0238 24.1529 19.2082 23.6367C17.932 22.829 17.211 22.3262 15.9723 21.538C14.5407 20.6272 15.4687 20.1265 16.2846 19.3083C16.4981 19.0942 20.2082 15.836 20.28 15.5404C20.289 15.5035 20.2973 15.3657 20.2125 15.2929C20.1277 15.2202 20.0026 15.245 19.9123 15.2648C19.7843 15.2929 17.7456 16.5939 13.7961 19.168C13.2174 19.5517 12.6933 19.7386 12.2236 19.7288C11.7059 19.718 10.71 19.4462 9.96967 19.2138C9.06161 18.9288 8.3399 18.7781 8.40274 18.2941C8.43547 18.042 8.79504 17.7842 9.48145 17.5206Z" fill="white"/>
<circle cx="17.2109" cy="17.7148" r="16.4663" stroke="white" stroke-width="0.5"/>
</svg>
