<?xml version="1.0" encoding="utf-8"?><svg viewBox="0 0 42 42" xmlns="http://www.w3.org/2000/svg" xmlns:xlink="http://www.w3.org/1999/xlink"><style>:root>svg{display:none}:root>svg:target{display:block}</style><svg fill="none" viewBox="0 0 6 12" id="arrow-breadcrumb" xmlns="http://www.w3.org/2000/svg"><path fill-rule="evenodd" clip-rule="evenodd" d="M.166 10.554a.5.5 0 1 0 .707.707l4.95-4.95a.499.499 0 0 0 .145-.39.499.499 0 0 0-.146-.382L.872.589a.5.5 0 1 0-.707.707l4.63 4.63-4.629 4.628Z" fill="#000"/></svg><svg fill="none" viewBox="0 0 9 6" id="arrow-dropdown-bottom" xmlns="http://www.w3.org/2000/svg"><path fill-rule="evenodd" clip-rule="evenodd" d="M1.64 1.032a.75.75 0 1 0-1.06 1.06l3.535 3.536c.219.22.54.275.81.166a.747.747 0 0 0 .282-.178l3.536-3.535a.75.75 0 1 0-1.061-1.06L4.655 4.046 1.64 1.032Z" fill="#000"/></svg><svg fill="none" viewBox="0 0 10 17" id="arrow-slider-left-light" xmlns="http://www.w3.org/2000/svg"><path fill-rule="evenodd" clip-rule="evenodd" d="M1.075 15.116A1 1 0 0 0 2.49 16.53l7.07-7.071a.998.998 0 0 0 .203-.29 1 1 0 0 0-.196-1.138L2.496.961a1 1 0 1 0-1.414 1.413l6.367 6.368-6.374 6.374Z" fill="#fff"/></svg><svg fill="none" viewBox="0 0 17 17" id="arrow-submit-left" xmlns="http://www.w3.org/2000/svg"><path d="M15.293 7.756a1 1 0 0 1 0 1.774L2.753 16.05c-.86.448-1.791-.472-1.353-1.338L4.24 9.093a1 1 0 0 0 0-.902L1.4 2.576c-.438-.867.492-1.787 1.354-1.339l12.54 6.519Z" stroke="#000" stroke-width="1.5"/></svg><svg fill="none" viewBox="0 0 17 18" id="arrow-submit-left-light" xmlns="http://www.w3.org/2000/svg"><path d="M15.293 8.003a1 1 0 0 1 0 1.774l-12.54 6.519c-.86.448-1.791-.472-1.353-1.338L4.24 9.34a1 1 0 0 0 0-.902L1.4 2.823c-.438-.867.492-1.787 1.354-1.339l12.54 6.519Z" stroke="#fff" stroke-width="1.5"/></svg><svg fill="none" viewBox="0 0 23 21" id="basket" xmlns="http://www.w3.org/2000/svg"><path fill-rule="evenodd" clip-rule="evenodd" d="M1.699.804a.85.85 0 1 0 0 1.7h2.865l.747 3.733a.846.846 0 0 0 .014.073l1.488 7.432a2.63 2.63 0 0 0 2.622 2.118h8.64a2.63 2.63 0 0 0 2.621-2.118l.001-.007 1.425-7.47a.85.85 0 0 0-.835-1.009H6.848l-.754-3.769A.85.85 0 0 0 5.26.804H1.7ZM8.48 13.41 7.188 6.956H20.26l-1.231 6.455-.001.002a.93.93 0 0 1-.93.747H9.41a.93.93 0 0 1-.93-.75H8.48Zm.084 5.884a.09.09 0 1 0 0-.18.09.09 0 0 0 0 .18Zm-1.61-.09a1.61 1.61 0 1 1 3.22 0 1.61 1.61 0 0 1-3.22 0Zm12.08.09a.09.09 0 1 0 0-.18.09.09 0 0 0 0 .18Zm-1.61-.09a1.61 1.61 0 1 1 3.22 0 1.61 1.61 0 0 1-3.22 0Z" fill="#000"/></svg><svg fill="none" viewBox="0 0 22 21" id="basket-gray" xmlns="http://www.w3.org/2000/svg"><path fill-rule="evenodd" clip-rule="evenodd" d="M1.312.613a.85.85 0 1 0 0 1.7h2.865l.747 3.733a.85.85 0 0 0 .015.073l1.487 7.432a2.63 2.63 0 0 0 2.622 2.118h8.64a2.63 2.63 0 0 0 2.621-2.118l.002-.007 1.424-7.47a.85.85 0 0 0-.835-1.009H6.461l-.754-3.769a.85.85 0 0 0-.833-.683H1.312Zm6.781 12.605L6.802 6.765h13.07l-1.23 6.455v.002a.93.93 0 0 1-.93.747H9.023a.93.93 0 0 1-.93-.75Zm.084 5.884a.09.09 0 1 0 0-.18.09.09 0 0 0 0 .18Zm-1.61-.09a1.61 1.61 0 1 1 3.22 0 1.61 1.61 0 0 1-3.22 0Zm12.08.09a.09.09 0 1 0 0-.18.09.09 0 0 0 0 .18Zm-1.61-.09a1.61 1.61 0 1 1 3.22 0 1.61 1.61 0 0 1-3.22 0Z" fill="gray"/></svg><svg fill="none" viewBox="0 0 21 17" id="burger" xmlns="http://www.w3.org/2000/svg"><path fill-rule="evenodd" clip-rule="evenodd" d="M.86.953c0-.47.38-.85.85-.85h18a.85.85 0 0 1 0 1.7h-18a.85.85 0 0 1-.85-.85Zm0 7.516c0-.47.382-.85.85-.85h18a.85.85 0 1 1 0 1.7h-18a.85.85 0 0 1-.85-.85Zm.85 6.665a.85.85 0 0 0 0 1.7h18a.85.85 0 1 0 0-1.7h-18Z" fill="#000"/></svg><svg fill="none" viewBox="0 0 21 17" id="burger-gray" xmlns="http://www.w3.org/2000/svg"><path fill-rule="evenodd" clip-rule="evenodd" d="M.852.885c0-.47.38-.85.85-.85h18a.85.85 0 0 1 0 1.7h-18a.85.85 0 0 1-.85-.85Zm.001 7.516c0-.47.38-.85.85-.85h18a.85.85 0 1 1 0 1.7h-18a.85.85 0 0 1-.85-.85Zm.85 6.665a.85.85 0 0 0 0 1.7h18a.85.85 0 1 0 0-1.7h-18Z" fill="gray"/></svg><svg fill="none" viewBox="0 0 14 9" id="chekbox-active" xmlns="http://www.w3.org/2000/svg"><path fill-rule="evenodd" clip-rule="evenodd" d="M1.454 2.174A.85.85 0 0 0 .252 3.376l4.95 4.95c.177.177.414.26.647.247a.848.848 0 0 0 .62-.248l6.364-6.364A.85.85 0 1 0 11.631.759L5.835 6.555 1.454 2.174Z" fill="#fff"/></svg><svg fill="none" viewBox="0 0 21 23" id="clear" xmlns="http://www.w3.org/2000/svg"><path d="M1.691 5.556h18" stroke="#000" stroke-width="2" stroke-linecap="round" stroke-linejoin="round"/><path d="M17.691 5.556v14a2 2 0 0 1-2 2h-10a2 2 0 0 1-2-2v-14m3 0v-2a2 2 0 0 1 2-2h4a2 2 0 0 1 2 2v2M8.691 10.556v6M12.691 10.556v6" stroke="#000" stroke-width="1.7" stroke-linecap="round" stroke-linejoin="round"/></svg><svg fill="none" viewBox="0 0 15 15" id="close" xmlns="http://www.w3.org/2000/svg"><path fill-rule="evenodd" clip-rule="evenodd" d="M14.538 1.473A.85.85 0 1 0 13.336.27L7.574 6.033 1.812.27A.85.85 0 1 0 .61 1.473l5.762 5.762-5.764 5.763A.85.85 0 1 0 1.81 14.2l5.764-5.763 5.764 5.764a.85.85 0 1 0 1.202-1.203L8.776 7.236l5.762-5.762Z" fill="#000"/></svg><svg fill="none" viewBox="0 0 13 13" id="close-gray" xmlns="http://www.w3.org/2000/svg"><path d="M11.91 1.325 1.478 12.112m10.521-.088L1.39 1.413" stroke="gray" stroke-width="1.7" stroke-linecap="round" stroke-linejoin="round"/></svg><svg fill="none" viewBox="0 0 16 19" id="compare" xmlns="http://www.w3.org/2000/svg"><path d="M13.306 1.097H2.416c-.858 0-1.555.845-1.555 1.889v13.222c0 1.043.697 1.889 1.556 1.889h10.889c.859 0 1.555-.846 1.555-1.89V2.987c0-1.044-.696-1.89-1.555-1.89Z" stroke="#000" stroke-width="1.7" stroke-linecap="round" stroke-linejoin="round"/><path d="M6.306 4.874H3.973v8.5h2.333v-8.5ZM11.75 4.874H9.417v4.722h2.333V4.874Z" stroke="#000" stroke-width="1.7" stroke-linecap="round" stroke-linejoin="round"/></svg><svg fill="none" viewBox="0 0 16 19" id="compare-gray" xmlns="http://www.w3.org/2000/svg"><path d="M13.306 1.129H2.416c-.858 0-1.555.846-1.555 1.889V16.24c0 1.043.697 1.889 1.556 1.889h10.889c.859 0 1.555-.846 1.555-1.889V3.018c0-1.043-.696-1.889-1.555-1.889Z" stroke="gray" stroke-width="1.7" stroke-linecap="round" stroke-linejoin="round"/><path d="M6.306 4.906H3.972v8.5h2.334v-8.5ZM11.75 4.906H9.417V9.63h2.333V4.906Z" stroke="gray" stroke-width="1.7" stroke-linecap="round" stroke-linejoin="round"/></svg><svg fill="none" viewBox="0 0 19 19" id="download" xmlns="http://www.w3.org/2000/svg"><path d="M18 12.29v3.777a1.889 1.889 0 0 1-1.889 1.889H2.89A1.89 1.89 0 0 1 1 16.066V12.29M4.778 7.567l4.723 4.722 4.722-4.722M9.501 12.289V.955" stroke="#000" stroke-width="1.7" stroke-linecap="round" stroke-linejoin="round"/></svg><svg fill="none" viewBox="0 0 17 20" id="estimate" xmlns="http://www.w3.org/2000/svg"><path d="M10.11 1.597h-7a1.75 1.75 0 0 0-1.75 1.75v14a1.75 1.75 0 0 0 1.75 1.75h10.5a1.75 1.75 0 0 0 1.75-1.75v-10.5l-5.25-5.25Z" stroke="#000" stroke-width="1.7" stroke-linecap="round" stroke-linejoin="round"/><path d="M10.11 1.597v5.25h5.25M11.86 11.222h-7M11.86 14.722h-7M6.61 7.722H4.86" stroke="#000" stroke-width="1.7" stroke-linecap="round" stroke-linejoin="round"/></svg><svg fill="none" viewBox="0 0 16 20" id="estimate-gray" xmlns="http://www.w3.org/2000/svg"><path d="M9.611 1.52h-7a1.75 1.75 0 0 0-1.75 1.75v14a1.75 1.75 0 0 0 1.75 1.75h10.5a1.75 1.75 0 0 0 1.75-1.75V6.77l-5.25-5.25Z" stroke="gray" stroke-width="1.7" stroke-linecap="round" stroke-linejoin="round"/><path d="M9.611 1.52v5.25h5.25M11.361 11.145h-7M11.361 14.645h-7M6.111 7.645h-1.75" stroke="gray" stroke-width="1.7" stroke-linecap="round" stroke-linejoin="round"/></svg><svg fill="none" viewBox="0 0 16 21" id="favorites" xmlns="http://www.w3.org/2000/svg"><path d="m14.86 19.597-7-5-7 5v-16a2 2 0 0 1 2-2h10a2 2 0 0 1 2 2v16Z" stroke="#000" stroke-width="1.7" stroke-linecap="round" stroke-linejoin="round"/></svg><svg fill="none" viewBox="0 0 16 21" id="favorites-gray" xmlns="http://www.w3.org/2000/svg"><path d="m14.86 19.738-7-5-7 5v-16a2 2 0 0 1 2-2h10a2 2 0 0 1 2 2v16Z" stroke="gray" stroke-width="1.7" stroke-linecap="round" stroke-linejoin="round"/></svg><svg fill="none" viewBox="0 0 22 22" id="form-edit" xmlns="http://www.w3.org/2000/svg"><path d="M16.031 1.699a2.829 2.829 0 0 1 4 4l-13.5 13.5-5.5 1.5 1.5-5.5 13.5-13.5Z" stroke="#000" stroke-width="1.7" stroke-linecap="round" stroke-linejoin="round"/></svg><svg fill="none" viewBox="0 0 18 18" id="location" xmlns="http://www.w3.org/2000/svg"><path d="M15.807 1.165a.636.636 0 0 1 .832.831L10.496 16.81c-.25.602-1.134.485-1.219-.16l-.76-5.782a1.836 1.836 0 0 0-1.58-1.582l-5.783-.76c-.645-.084-.762-.97-.16-1.218l14.813-6.143Z" stroke="#000" stroke-width="1.2"/></svg><svg fill="none" viewBox="0 0 17 19" id="login" xmlns="http://www.w3.org/2000/svg"><path fill-rule="evenodd" clip-rule="evenodd" d="M5.863 5.357a2.711 2.711 0 1 1 5.423 0 2.711 2.711 0 0 1-5.423 0ZM8.574.946a4.411 4.411 0 1 0 0 8.823 4.411 4.411 0 0 0 0-8.823ZM5.013 11.63A4.412 4.412 0 0 0 .6 16.043v1.78a.85.85 0 0 0 1.7 0v-1.78a2.711 2.711 0 0 1 2.712-2.712h7.123a2.712 2.712 0 0 1 2.711 2.712v1.78a.85.85 0 0 0 1.7 0v-1.78a4.411 4.411 0 0 0-4.411-4.412H5.013Z" fill="#000"/></svg><svg fill="none" viewBox="0 0 17 19" id="login-gray" xmlns="http://www.w3.org/2000/svg"><path fill-rule="evenodd" clip-rule="evenodd" d="M5.424 5.165a2.711 2.711 0 1 1 5.423 0 2.711 2.711 0 0 1-5.423 0ZM8.135.754a4.411 4.411 0 1 0 0 8.823 4.411 4.411 0 0 0 0-8.823ZM4.574 11.438A4.411 4.411 0 0 0 .162 15.85v1.78a.85.85 0 0 0 1.7 0v-1.78a2.712 2.712 0 0 1 2.712-2.711h7.123a2.711 2.711 0 0 1 2.711 2.71v1.782a.85.85 0 1 0 1.7 0V15.85a4.411 4.411 0 0 0-4.411-4.412H4.574Z" fill="gray"/></svg><svg fill="none" viewBox="0 0 25 25" id="map-pin-red" xmlns="http://www.w3.org/2000/svg"><g clip-path="url(#aya)" stroke="red" stroke-width="1.7" stroke-linecap="round" stroke-linejoin="round"><path d="M21.096 10.55c0 7-9 13-9 13s-9-6-9-13a9 9 0 1 1 18 0Z"/><path d="M12.096 13.55a3 3 0 1 0 0-6 3 3 0 0 0 0 6Z"/></g><defs><clipPath id="aya"><path fill="#fff" transform="translate(.096 .55)" d="M0 0h24v24H0z"/></clipPath></defs></svg><svg fill="none" viewBox="0 0 17 3" id="minus" xmlns="http://www.w3.org/2000/svg"><path d="M1.01 1.539h15" stroke="#000" stroke-width="1.7" stroke-linecap="round" stroke-linejoin="round"/></svg><svg fill="none" viewBox="0 0 21 5" id="more-gray" xmlns="http://www.w3.org/2000/svg"><path fill-rule="evenodd" clip-rule="evenodd" d="M8.514 2.641a1.7 1.7 0 1 1 3.4 0 1.7 1.7 0 0 1-3.4 0Zm-8.391.036a1.7 1.7 0 1 1 3.4 0 1.7 1.7 0 0 1-3.4 0ZM18.605.94a1.7 1.7 0 1 0 0 3.4 1.7 1.7 0 0 0 0-3.4Z" fill="gray"/></svg><svg fill="none" viewBox="0 0 19 23" id="pay-check-red" xmlns="http://www.w3.org/2000/svg"><path d="M11.31 1.547h-8a2 2 0 0 0-2 2v16a2 2 0 0 0 2 2h12a2 2 0 0 0 2-2v-12l-6-6Z" stroke="red" stroke-width="1.7" stroke-linecap="round" stroke-linejoin="round"/><path d="M11.31 1.547v6h6M6.31 14.547h6" stroke="red" stroke-width="1.7" stroke-linecap="round" stroke-linejoin="round"/></svg><svg fill="none" viewBox="0 0 19 18" id="phone" xmlns="http://www.w3.org/2000/svg"><path d="M17.906 13.183v2.508a1.67 1.67 0 0 1-1.822 1.671 16.542 16.542 0 0 1-7.213-2.566 16.3 16.3 0 0 1-5.016-5.015A16.542 16.542 0 0 1 1.29 2.534 1.672 1.672 0 0 1 2.953.712H5.46A1.672 1.672 0 0 1 7.132 2.15c.106.802.302 1.59.585 2.348a1.672 1.672 0 0 1-.376 1.764L6.279 7.324a13.374 13.374 0 0 0 5.016 5.015l1.061-1.062a1.672 1.672 0 0 1 1.764-.376c.758.283 1.546.48 2.349.585a1.672 1.672 0 0 1 1.437 1.697Z" stroke="#000" stroke-width="1.2" stroke-linecap="round" stroke-linejoin="round"/></svg><svg fill="none" viewBox="0 0 17 18" id="plus" xmlns="http://www.w3.org/2000/svg"><path fill-rule="evenodd" clip-rule="evenodd" d="M9.36 1.539a.85.85 0 0 0-1.7 0v6.65H1.01a.85.85 0 1 0 0 1.7h6.65v6.65a.85.85 0 1 0 1.7 0v-6.65h6.65a.85.85 0 0 0 0-1.7H9.36v-6.65Z" fill="#000"/></svg><svg fill="none" viewBox="0 0 27 27" id="price" xmlns="http://www.w3.org/2000/svg"><path fill-rule="evenodd" clip-rule="evenodd" d="M1.7.56C.985.56.405 1.14.405 1.857v12.258c0 .343.136.673.38.916l10.528 10.516a3.748 3.748 0 0 0 5.302 0l8.788-8.788-.916-.916.919.913a3.747 3.747 0 0 0 0-5.283l-.003-.003L14.873.94a1.296 1.296 0 0 0-.915-.38H1.7Zm21.87 14.368h-.002l-8.786 8.787a1.157 1.157 0 0 1-1.636 0l-.001-.001-10.15-10.137V3.152h10.426l10.147 10.147h.001a1.156 1.156 0 0 1 0 1.629ZM7.828 6.46a1.524 1.524 0 1 0 0 3.048h.014a1.524 1.524 0 0 0 0-3.048h-.014Z" fill="#fff"/></svg><svg fill="none" viewBox="0 0 17 21" id="rub-red" xmlns="http://www.w3.org/2000/svg"><path d="M9.524 12.385H.01v-1.43h9.514c1.162 0 2.11-.19 2.845-.571.745-.381 1.289-.903 1.634-1.566.345-.662.517-1.415.517-2.26a4.81 4.81 0 0 0-.517-2.204c-.336-.68-.871-1.23-1.606-1.647-.726-.418-1.684-.626-2.873-.626H4.447v18.376H2.773V.637h6.751c1.452 0 2.673.25 3.662.75.99.49 1.733 1.179 2.232 2.068.509.88.763 1.906.763 3.077 0 1.216-.254 2.264-.763 3.144-.499.871-1.243 1.543-2.232 2.014-.98.463-2.2.695-3.662.695Zm-.081 2.014v1.443H.01V14.4h9.433Z" fill="red"/></svg><svg fill="none" viewBox="0 0 20 20" id="search" xmlns="http://www.w3.org/2000/svg"><path fill-rule="evenodd" clip-rule="evenodd" d="M2.419 8.514a6.669 6.669 0 1 1 11.46 4.638.861.861 0 0 0-.152.152 6.669 6.669 0 0 1-11.308-4.79ZM14.374 15a8.369 8.369 0 1 1 1.202-1.202l4.107 4.107a.85.85 0 0 1-1.203 1.202L14.374 15Z" fill="#000"/></svg><svg fill="none" viewBox="0 0 14 15" id="search-gray" xmlns="http://www.w3.org/2000/svg"><path fill-rule="evenodd" clip-rule="evenodd" d="M1.785 6.623A4.285 4.285 0 1 1 9.16 9.59a.858.858 0 0 0-.125.125 4.285 4.285 0 0 1-7.251-3.092Zm7.873 4.79a5.985 5.985 0 1 1 1.202-1.202l2.635 2.636a.85.85 0 1 1-1.202 1.202l-2.635-2.636Z" fill="#B9B9B9"/></svg><svg fill="none" viewBox="0 0 24 25" id="shopping-bag" xmlns="http://www.w3.org/2000/svg"><path d="m6 2.982-3 4v14a2 2 0 0 0 2 2h14a2 2 0 0 0 2-2v-14l-3-4H6ZM3 6.982h18" stroke="#000" stroke-width="1.7" stroke-linecap="round" stroke-linejoin="round"/><path d="M16 10.982a4 4 0 1 1-8 0" stroke="#000" stroke-width="1.7" stroke-linecap="round" stroke-linejoin="round"/></svg><svg fill="none" viewBox="0 0 25 23" id="star" xmlns="http://www.w3.org/2000/svg"><path d="m12.127.254 4.114 6.837 7.774 1.8-5.23 6.026.69 7.95-7.348-3.113-7.347 3.113.69-7.95L.239 8.891l7.773-1.8L12.127.254Z" fill="red"/></svg><svg fill="none" viewBox="0 0 42 42" id="telegram-dark" xmlns="http://www.w3.org/2000/svg"><path fill-rule="evenodd" clip-rule="evenodd" d="M11.024 20.666c5.188-2.182 8.647-3.621 10.378-4.316 4.942-1.985 5.969-2.33 6.638-2.341.148-.003.477.033.69.2.18.14.23.331.253.465.024.134.053.438.03.676-.268 2.717-1.427 9.31-2.016 12.353-.25 1.288-.74 1.72-1.216 1.762-1.034.092-1.819-.66-2.82-1.293-1.566-.991-2.45-1.608-3.97-2.576-1.758-1.117-.619-1.732.382-2.736.262-.263 4.816-4.262 4.904-4.624.01-.046.021-.215-.083-.304-.104-.09-.258-.059-.368-.035-.157.035-2.66 1.632-7.507 4.79-.71.472-1.353.701-1.93.689-.635-.013-1.857-.347-2.766-.632-1.114-.35-2-.535-1.923-1.129.04-.31.482-.626 1.324-.95Z" fill="#000"/><circle cx="20.516" cy="20.905" r="20.266" stroke="#000" stroke-width=".5"/></svg><svg fill="none" viewBox="0 0 24 25" id="track" xmlns="http://www.w3.org/2000/svg"><path d="M16 3.042H1v13h15v-13ZM16 8.042h4l3 3v5h-7v-8ZM5.5 21.042a2.5 2.5 0 1 0 0-5 2.5 2.5 0 0 0 0 5ZM18.5 21.042a2.5 2.5 0 1 0 0-5 2.5 2.5 0 0 0 0 5Z" stroke="#000" stroke-width="1.7" stroke-linecap="round" stroke-linejoin="round"/></svg><svg fill="none" viewBox="0 0 25 25" id="truck-red" xmlns="http://www.w3.org/2000/svg"><g clip-path="url(#bma)" stroke="red" stroke-width="1.7" stroke-linecap="round" stroke-linejoin="round"><path d="M16.44 3.55h-15v13h15v-13ZM16.44 8.55h4l3 3v5h-7v-8ZM5.94 21.55a2.5 2.5 0 1 0 0-5 2.5 2.5 0 0 0 0 5ZM18.94 21.55a2.5 2.5 0 1 0 0-5 2.5 2.5 0 0 0 0 5Z"/></g><defs><clipPath id="bma"><path fill="#fff" transform="translate(.44 .55)" d="M0 0h24v24H0z"/></clipPath></defs></svg><svg fill="none" viewBox="0 0 42 42" id="vkontakte-dark" xmlns="http://www.w3.org/2000/svg"><circle cx="21.481" cy="20.905" r="20.266" stroke="#000" stroke-width=".5"/><path d="M22.41 28.51c-7.101 0-11.151-5.015-11.32-13.36h3.557c.117 6.125 2.739 8.72 4.815 9.254V15.15h3.35v5.283c2.05-.227 4.205-2.634 4.932-5.283h3.35c-.559 3.264-2.895 5.671-4.557 6.66 1.662.803 4.323 2.903 5.335 6.701h-3.686c-.792-2.54-2.765-4.507-5.374-4.774v4.774h-.403Z" fill="#000"/></svg><svg fill="none" viewBox="0 0 42 42" id="whatsapp-dark" xmlns="http://www.w3.org/2000/svg"><path d="m10.582 30.843 1.473-5.35a10.23 10.23 0 0 1-1.383-5.167c0-5.696 4.658-10.328 10.377-10.328 2.778 0 5.386 1.075 7.342 3.027a10.217 10.217 0 0 1 3.036 7.306c0 5.697-4.659 10.329-10.383 10.329h-.005c-1.737 0-3.444-.436-4.962-1.259l-5.495 1.442Zm5.759-3.31.313.19a8.682 8.682 0 0 0 4.39 1.198h.005c4.754 0 8.626-3.849 8.626-8.585a8.523 8.523 0 0 0-2.524-6.073 8.58 8.58 0 0 0-6.102-2.516c-4.753-.005-8.625 3.844-8.625 8.58 0 1.62.453 3.2 1.319 4.567l.204.327-.871 3.165 3.265-.852Z" fill="#000"/><path d="m10.945 30.48 1.424-5.167a9.888 9.888 0 0 1-1.344-4.983c.005-5.498 4.5-9.972 10.024-9.972a9.978 9.978 0 0 1 7.088 2.923 9.887 9.887 0 0 1 2.931 7.054c0 5.499-4.499 9.972-10.019 9.972h-.005c-1.677 0-3.325-.421-4.788-1.214l-5.31 1.387Z" fill="#fff"/><path d="m10.582 30.843 1.473-5.35a10.23 10.23 0 0 1-1.383-5.167c0-5.696 4.658-10.328 10.377-10.328 2.778 0 5.386 1.075 7.342 3.027a10.217 10.217 0 0 1 3.036 7.306c0 5.697-4.659 10.329-10.383 10.329h-.005c-1.737 0-3.444-.436-4.962-1.259l-5.495 1.442Zm5.759-3.31.313.19a8.682 8.682 0 0 0 4.39 1.198h.005c4.754 0 8.626-3.849 8.626-8.585a8.523 8.523 0 0 0-2.524-6.073 8.58 8.58 0 0 0-6.102-2.516c-4.753-.005-8.625 3.844-8.625 8.58 0 1.62.453 3.2 1.319 4.567l.204.327-.871 3.165 3.265-.852Z" fill="#000"/><path fill-rule="evenodd" clip-rule="evenodd" d="M18.455 16.006c-.194-.431-.398-.441-.582-.446-.15-.005-.324-.005-.498-.005a.956.956 0 0 0-.692.322c-.239.257-.906.881-.906 2.155 0 1.268.931 2.496 1.06 2.67.13.173 1.797 2.863 4.43 3.898 2.19.862 2.638.689 3.111.644.473-.045 1.533-.624 1.752-1.229.214-.604.214-1.119.15-1.228-.065-.109-.24-.173-.498-.302-.26-.129-1.533-.753-1.772-.842-.24-.085-.413-.13-.583.128-.174.258-.671.838-.82 1.011-.15.173-.304.193-.563.064-.26-.128-1.095-.4-2.086-1.283-.771-.683-1.294-1.53-1.443-1.788-.15-.257-.015-.396.114-.525.115-.114.26-.302.389-.45.129-.15.174-.258.258-.432.085-.173.045-.322-.02-.45-.064-.124-.572-1.402-.8-1.912Z" fill="#000"/><circle cx="21" cy="20.905" r="20.266" stroke="#000" stroke-width=".5"/></svg></svg>