<svg viewBox="0 0 42 42" xmlns="http://www.w3.org/2000/svg" xmlns:xlink="http://www.w3.org/1999/xlink"><style>:root&gt;svg{display:none}:root&gt;svg:target{display:block}</style><svg fill="none" viewBox="0 0 11 21" id="arrow-back" xmlns="http://www.w3.org/2000/svg"><path fill-rule="evenodd" clip-rule="evenodd" d="M10.553 1.549A.85.85 0 009.35.347L.249 9.448a.848.848 0 00-.248.644.848.848 0 00.248.644l9.102 9.102a.85.85 0 001.202-1.202l-8.544-8.544 8.544-8.543z" fill="#000"/></svg><svg fill="none" viewBox="0 0 6 12" id="arrow-breadcrumb" xmlns="http://www.w3.org/2000/svg"><path fill-rule="evenodd" clip-rule="evenodd" d="M.166 10.554a.5.5 0 10.707.707l4.95-4.95a.499.499 0 00.145-.39.499.499 0 00-.146-.382L.872.589a.5.5 0 10-.707.707l4.63 4.63-4.629 4.628z" fill="#000"/></svg><svg fill="none" viewBox="0 0 9 6" id="arrow-dropdown-bottom" xmlns="http://www.w3.org/2000/svg"><path fill-rule="evenodd" clip-rule="evenodd" d="M1.64 1.032a.75.75 0 10-1.06 1.06l3.535 3.536c.219.22.54.275.81.166a.747.747 0 00.282-.178l3.536-3.535a.75.75 0 10-1.061-1.06L4.655 4.046 1.64 1.032z" fill="#000"/></svg><svg fill="none" viewBox="0 0 10 17" id="arrow-slider-left-light" xmlns="http://www.w3.org/2000/svg"><path fill-rule="evenodd" clip-rule="evenodd" d="M1.075 15.116A1 1 0 002.49 16.53l7.07-7.071a.998.998 0 00.203-.29 1 1 0 00-.196-1.138L2.496.961a1 1 0 10-1.414 1.413l6.367 6.368-6.374 6.374z" fill="#fff"/></svg><svg fill="none" viewBox="0 0 17 17" id="arrow-submit-left" xmlns="http://www.w3.org/2000/svg"><path d="M15.293 7.756a1 1 0 010 1.774l-12.54 6.52c-.86.448-1.791-.472-1.353-1.338l2.84-5.619a1 1 0 000-.902L1.4 2.576c-.438-.867.492-1.787 1.354-1.339l12.54 6.519z" stroke="#000" stroke-width="1.5"/></svg><svg fill="none" viewBox="0 0 17 18" id="arrow-submit-left-light" xmlns="http://www.w3.org/2000/svg"><path d="M15.293 8.003a1 1 0 010 1.774l-12.54 6.519c-.86.448-1.791-.472-1.353-1.338L4.24 9.34a1 1 0 000-.902L1.4 2.823c-.438-.867.492-1.787 1.354-1.339l12.54 6.519z" stroke="#fff" stroke-width="1.5"/></svg><svg fill="none" viewBox="0 0 23 21" id="basket" xmlns="http://www.w3.org/2000/svg"><path fill-rule="evenodd" clip-rule="evenodd" d="M1.699.804a.85.85 0 100 1.7h2.865l.747 3.733a.846.846 0 00.014.073l1.488 7.432a2.63 2.63 0 002.622 2.118h8.64a2.63 2.63 0 002.621-2.118l.001-.007 1.425-7.47a.85.85 0 00-.835-1.009H6.848l-.754-3.769A.85.85 0 005.26.804H1.7zM8.48 13.41L7.188 6.956H20.26l-1.231 6.455-.001.002a.93.93 0 01-.93.747H9.41a.93.93 0 01-.93-.75zm.084 5.884a.09.09 0 100-.18.09.09 0 000 .18zm-1.61-.09a1.61 1.61 0 113.22 0 1.61 1.61 0 01-3.22 0zm12.08.09a.09.09 0 100-.18.09.09 0 000 .18zm-1.61-.09a1.61 1.61 0 113.22 0 1.61 1.61 0 01-3.22 0z" fill="#000"/></svg><svg fill="none" viewBox="0 0 23 21" id="basket-red" xmlns="http://www.w3.org/2000/svg"><path fill-rule="evenodd" clip-rule="evenodd" d="M1.699.804a.85.85 0 100 1.7h2.865l.747 3.733a.846.846 0 00.014.073l1.488 7.432a2.63 2.63 0 002.622 2.118h8.64a2.63 2.63 0 002.621-2.118l.001-.007 1.425-7.47a.85.85 0 00-.835-1.009H6.848l-.754-3.769A.85.85 0 005.26.804H1.7zM8.48 13.41L7.188 6.956H20.26l-1.231 6.455-.001.002a.93.93 0 01-.93.747H9.41a.93.93 0 01-.93-.75zm.084 5.884a.09.09 0 100-.18.09.09 0 000 .18zm-1.61-.09a1.61 1.61 0 113.22 0 1.61 1.61 0 01-3.22 0zm12.08.09a.09.09 0 100-.18.09.09 0 000 .18zm-1.61-.09a1.61 1.61 0 113.22 0 1.61 1.61 0 01-3.22 0z" fill="red"/></svg><svg fill="none" viewBox="0 0 22 21" id="basket-gray" xmlns="http://www.w3.org/2000/svg"><path fill-rule="evenodd" clip-rule="evenodd" d="M1.312.613a.85.85 0 100 1.7h2.865l.747 3.733a.85.85 0 00.015.073l1.487 7.432a2.63 2.63 0 002.622 2.118h8.64a2.63 2.63 0 002.621-2.118l.002-.007 1.424-7.47a.85.85 0 00-.835-1.009H6.461l-.754-3.769a.85.85 0 00-.833-.683H1.312zm6.781 12.605L6.802 6.765h13.07l-1.23 6.455v.002a.93.93 0 01-.93.747H9.023a.93.93 0 01-.93-.75zm.084 5.884a.09.09 0 100-.18.09.09 0 000 .18zm-1.61-.09a1.61 1.61 0 113.22 0 1.61 1.61 0 01-3.22 0zm12.08.09a.09.09 0 100-.18.09.09 0 000 .18zm-1.61-.09a1.61 1.61 0 113.22 0 1.61 1.61 0 01-3.22 0z" fill="gray"/></svg><svg fill="none" viewBox="0 0 21 17" id="burger" xmlns="http://www.w3.org/2000/svg"><path fill-rule="evenodd" clip-rule="evenodd" d="M.86.953c0-.47.38-.85.85-.85h18a.85.85 0 010 1.7h-18a.85.85 0 01-.85-.85zm0 7.516c0-.47.382-.85.85-.85h18a.85.85 0 110 1.7h-18a.85.85 0 01-.85-.85zm.85 6.665a.85.85 0 000 1.7h18a.85.85 0 100-1.7h-18z" fill="#000"/></svg><svg fill="none" viewBox="0 0 21 17" id="burger-red" xmlns="http://www.w3.org/2000/svg"><path fill-rule="evenodd" clip-rule="evenodd" d="M.86.953c0-.47.38-.85.85-.85h18a.85.85 0 010 1.7h-18a.85.85 0 01-.85-.85zm0 7.516c0-.47.382-.85.85-.85h18a.85.85 0 110 1.7h-18a.85.85 0 01-.85-.85zm.85 6.665a.85.85 0 000 1.7h18a.85.85 0 100-1.7h-18z" fill="red"/></svg><svg fill="none" viewBox="0 0 21 17" id="burger-gray" xmlns="http://www.w3.org/2000/svg"><path fill-rule="evenodd" clip-rule="evenodd" d="M.852.885c0-.47.38-.85.85-.85h18a.85.85 0 010 1.7h-18a.85.85 0 01-.85-.85zm.001 7.516c0-.47.38-.85.85-.85h18a.85.85 0 110 1.7h-18a.85.85 0 01-.85-.85zm.85 6.665a.85.85 0 000 1.7h18a.85.85 0 100-1.7h-18z" fill="gray"/></svg><svg fill="none" viewBox="0 0 14 9" id="chekbox-active" xmlns="http://www.w3.org/2000/svg"><path fill-rule="evenodd" clip-rule="evenodd" d="M1.454 2.174A.85.85 0 00.252 3.376l4.95 4.95c.177.177.414.26.647.247a.848.848 0 00.62-.248l6.364-6.364A.85.85 0 1011.631.759L5.835 6.555 1.454 2.174z" fill="#fff"/></svg><svg fill="none" viewBox="0 0 21 23" id="clear" xmlns="http://www.w3.org/2000/svg"><path d="M1.691 5.556h18" stroke="#000" stroke-width="2" stroke-linecap="round" stroke-linejoin="round"/><path d="M17.691 5.556v14a2 2 0 01-2 2h-10a2 2 0 01-2-2v-14m3 0v-2a2 2 0 012-2h4a2 2 0 012 2v2m-6 5v6m4-6v6" stroke="#000" stroke-width="1.7" stroke-linecap="round" stroke-linejoin="round"/></svg><svg fill="none" viewBox="0 0 21 23" id="clear-red" xmlns="http://www.w3.org/2000/svg"><path d="M1.691 5.556h18" stroke="red" stroke-width="2" stroke-linecap="round" stroke-linejoin="round"/><path d="M17.691 5.556v14a2 2 0 01-2 2h-10a2 2 0 01-2-2v-14m3 0v-2a2 2 0 012-2h4a2 2 0 012 2v2m-6 5v6m4-6v6" stroke="red" stroke-width="1.7" stroke-linecap="round" stroke-linejoin="round"/></svg><svg fill="none" viewBox="0 0 15 15" id="close" xmlns="http://www.w3.org/2000/svg"><path fill-rule="evenodd" clip-rule="evenodd" d="M14.538 1.473A.85.85 0 1013.336.27L7.574 6.033 1.812.27A.85.85 0 10.61 1.473l5.762 5.762-5.764 5.763A.85.85 0 101.81 14.2l5.764-5.763 5.764 5.764a.85.85 0 101.202-1.203L8.776 7.236l5.762-5.762z" fill="#000"/></svg><svg fill="none" viewBox="0 0 15 15" id="close-red" xmlns="http://www.w3.org/2000/svg"><path fill-rule="evenodd" clip-rule="evenodd" d="M14.538 1.473A.85.85 0 1013.336.27L7.574 6.033 1.812.27A.85.85 0 10.61 1.473l5.762 5.762-5.764 5.763A.85.85 0 101.81 14.2l5.764-5.763 5.764 5.764a.85.85 0 101.202-1.203L8.776 7.236l5.762-5.762z" fill="red"/></svg><svg fill="none" viewBox="0 0 13 13" id="close-gray" xmlns="http://www.w3.org/2000/svg"><path d="M11.91 1.325L1.478 12.112m10.521-.088L1.39 1.413" stroke="gray" stroke-width="1.7" stroke-linecap="round" stroke-linejoin="round"/></svg><svg fill="none" viewBox="0 0 16 19" id="compare" xmlns="http://www.w3.org/2000/svg"><path d="M13.306 1.097H2.416c-.858 0-1.555.845-1.555 1.889v13.222c0 1.043.697 1.889 1.556 1.889h10.889c.859 0 1.555-.846 1.555-1.89V2.987c0-1.044-.696-1.89-1.555-1.89z" stroke="#000" stroke-width="1.7" stroke-linecap="round" stroke-linejoin="round"/><path d="M6.306 4.874H3.973v8.5h2.333v-8.5zm5.444 0H9.417v4.722h2.333V4.874z" stroke="#000" stroke-width="1.7" stroke-linecap="round" stroke-linejoin="round"/></svg><svg fill="none" viewBox="0 0 16 19" id="compare-red" xmlns="http://www.w3.org/2000/svg"><path d="M13.306 1.097H2.416c-.858 0-1.555.845-1.555 1.889v13.222c0 1.043.697 1.889 1.556 1.889h10.889c.859 0 1.555-.846 1.555-1.89V2.987c0-1.044-.696-1.89-1.555-1.89z" stroke="red" stroke-width="1.7" stroke-linecap="round" stroke-linejoin="round"/><path d="M6.306 4.874H3.973v8.5h2.333v-8.5zm5.444 0H9.417v4.722h2.333V4.874z" stroke="red" stroke-width="1.7" stroke-linecap="round" stroke-linejoin="round"/></svg><svg fill="none" viewBox="0 0 16 19" id="compare-gray" xmlns="http://www.w3.org/2000/svg"><path d="M13.306 1.129H2.416c-.858 0-1.555.846-1.555 1.889V16.24c0 1.043.697 1.889 1.556 1.889h10.889c.859 0 1.555-.846 1.555-1.889V3.018c0-1.043-.696-1.889-1.555-1.889z" stroke="gray" stroke-width="1.7" stroke-linecap="round" stroke-linejoin="round"/><path d="M6.306 4.906H3.972v8.5h2.334v-8.5zm5.444 0H9.417V9.63h2.333V4.906z" stroke="gray" stroke-width="1.7" stroke-linecap="round" stroke-linejoin="round"/></svg><svg fill="none" viewBox="0 0 19 19" id="download" xmlns="http://www.w3.org/2000/svg"><path d="M18 12.29v3.777a1.889 1.889 0 01-1.889 1.889H2.89A1.89 1.89 0 011 16.066V12.29m3.778-4.723l4.723 4.722 4.722-4.722m-4.722 4.722V.955" stroke="#000" stroke-width="1.7" stroke-linecap="round" stroke-linejoin="round"/></svg><svg fill="none" viewBox="0 0 17 20" id="estimate" xmlns="http://www.w3.org/2000/svg"><path d="M10.11 1.597h-7a1.75 1.75 0 00-1.75 1.75v14a1.75 1.75 0 001.75 1.75h10.5a1.75 1.75 0 001.75-1.75v-10.5l-5.25-5.25z" stroke="#000" stroke-width="1.7" stroke-linecap="round" stroke-linejoin="round"/><path d="M10.11 1.597v5.25h5.25m-3.5 4.375h-7m7 3.5h-7m1.75-7H4.86" stroke="#000" stroke-width="1.7" stroke-linecap="round" stroke-linejoin="round"/></svg><svg fill="none" viewBox="0 0 17 20" id="estimate-red" xmlns="http://www.w3.org/2000/svg"><path d="M10.11 1.597h-7a1.75 1.75 0 00-1.75 1.75v14a1.75 1.75 0 001.75 1.75h10.5a1.75 1.75 0 001.75-1.75v-10.5l-5.25-5.25z" stroke="red" stroke-width="1.7" stroke-linecap="round" stroke-linejoin="round"/><path d="M10.11 1.597v5.25h5.25m-3.5 4.375h-7m7 3.5h-7m1.75-7H4.86" stroke="red" stroke-width="1.7" stroke-linecap="round" stroke-linejoin="round"/></svg><svg fill="none" viewBox="0 0 16 20" id="estimate-gray" xmlns="http://www.w3.org/2000/svg"><path d="M9.611 1.52h-7a1.75 1.75 0 00-1.75 1.75v14a1.75 1.75 0 001.75 1.75h10.5a1.75 1.75 0 001.75-1.75V6.77l-5.25-5.25z" stroke="gray" stroke-width="1.7" stroke-linecap="round" stroke-linejoin="round"/><path d="M9.611 1.52v5.25h5.25m-3.5 4.375h-7m7 3.5h-7m1.75-7h-1.75" stroke="gray" stroke-width="1.7" stroke-linecap="round" stroke-linejoin="round"/></svg><svg fill="none" viewBox="0 0 16 21" id="favorites" xmlns="http://www.w3.org/2000/svg"><path d="M14.86 19.597l-7-5-7 5v-16a2 2 0 012-2h10a2 2 0 012 2v16z" stroke="#000" stroke-width="1.7" stroke-linecap="round" stroke-linejoin="round"/></svg><svg fill="none" viewBox="0 0 16 21" id="favorites-red" xmlns="http://www.w3.org/2000/svg"><path d="M14.86 19.597l-7-5-7 5v-16a2 2 0 012-2h10a2 2 0 012 2v16z" stroke="red" fill="#fff" stroke-width="1.7" stroke-linecap="round" stroke-linejoin="round"/></svg><svg fill="none" viewBox="0 0 16 21" id="favorites-gray" xmlns="http://www.w3.org/2000/svg"><path d="M14.86 19.738l-7-5-7 5v-16a2 2 0 012-2h10a2 2 0 012 2v16z" stroke="gray" stroke-width="1.7" stroke-linecap="round" stroke-linejoin="round"/></svg><svg fill="none" viewBox="0 0 23 17" id="filter" xmlns="http://www.w3.org/2000/svg"><path fill-rule="evenodd" clip-rule="evenodd" d="M15.519 2.298a2.376 2.376 0 100 4.752 2.376 2.376 0 000-4.752zM.924 5.524h10.608a4.077 4.077 0 007.974 0h1.712a.85.85 0 000-1.7h-1.712a4.077 4.077 0 00-7.975 0H.924a.85.85 0 000 1.7zm5.698 8.992a2.376 2.376 0 100-4.752 2.376 2.376 0 000 4.752zm14.595-3.227H10.61a4.077 4.077 0 00-7.974 0H.923a.85.85 0 100 1.7h1.712a4.077 4.077 0 007.975 0h10.607a.85.85 0 000-1.7z" fill="#000"/></svg><svg fill="none" viewBox="0 0 22 22" id="form-edit" xmlns="http://www.w3.org/2000/svg"><path d="M16.031 1.699a2.829 2.829 0 014 4l-13.5 13.5-5.5 1.5 1.5-5.5 13.5-13.5z" stroke="#000" stroke-width="1.7" stroke-linecap="round" stroke-linejoin="round"/></svg><svg fill="none" viewBox="0 0 18 18" id="location" xmlns="http://www.w3.org/2000/svg"><path d="M15.807 1.165a.636.636 0 01.832.831L10.496 16.81c-.25.602-1.134.485-1.219-.16l-.76-5.782a1.836 1.836 0 00-1.58-1.582l-5.783-.76c-.645-.084-.762-.97-.16-1.218l14.813-6.143z" stroke="#000" stroke-width="1.2"/></svg><svg fill="none" viewBox="0 0 17 19" id="login" xmlns="http://www.w3.org/2000/svg"><path fill-rule="evenodd" clip-rule="evenodd" d="M5.863 5.357a2.711 2.711 0 115.423 0 2.711 2.711 0 01-5.423 0zM8.574.946a4.411 4.411 0 100 8.823 4.411 4.411 0 000-8.823zM5.013 11.63A4.412 4.412 0 00.6 16.043v1.78a.85.85 0 001.7 0v-1.78a2.711 2.711 0 012.712-2.712h7.123a2.712 2.712 0 012.711 2.712v1.78a.85.85 0 001.7 0v-1.78a4.411 4.411 0 00-4.411-4.412H5.013z" fill="#000"/></svg><svg fill="none" viewBox="0 0 17 19" id="login-red" xmlns="http://www.w3.org/2000/svg"><path fill-rule="evenodd" clip-rule="evenodd" d="M5.863 5.357a2.711 2.711 0 115.423 0 2.711 2.711 0 01-5.423 0zM8.574.946a4.411 4.411 0 100 8.823 4.411 4.411 0 000-8.823zM5.013 11.63A4.412 4.412 0 00.6 16.043v1.78a.85.85 0 001.7 0v-1.78a2.711 2.711 0 012.712-2.712h7.123a2.712 2.712 0 012.711 2.712v1.78a.85.85 0 001.7 0v-1.78a4.411 4.411 0 00-4.411-4.412H5.013z" fill="red"/></svg><svg fill="none" viewBox="0 0 17 19" id="login-gray" xmlns="http://www.w3.org/2000/svg"><path fill-rule="evenodd" clip-rule="evenodd" d="M5.424 5.165a2.711 2.711 0 115.423 0 2.711 2.711 0 01-5.423 0zM8.135.754a4.411 4.411 0 100 8.823 4.411 4.411 0 000-8.823zM4.574 11.438A4.411 4.411 0 00.162 15.85v1.78a.85.85 0 001.7 0v-1.78a2.712 2.712 0 012.712-2.711h7.123a2.711 2.711 0 012.711 2.71v1.782a.85.85 0 101.7 0V15.85a4.411 4.411 0 00-4.411-4.412H4.574z" fill="gray"/></svg><svg fill="none" viewBox="0 0 25 25" id="map-pin-red" xmlns="http://www.w3.org/2000/svg"><g clip-path="url(#baa)" stroke="red" stroke-width="1.7" stroke-linecap="round" stroke-linejoin="round"><path d="M21.096 10.55c0 7-9 13-9 13s-9-6-9-13a9 9 0 1118 0z"/><path d="M12.096 13.55a3 3 0 100-6 3 3 0 000 6z"/></g><defs><clipPath id="baa"><path fill="#fff" transform="translate(.096 .55)" d="M0 0h24v24H0z"/></clipPath></defs></svg><svg fill="none" viewBox="0 0 17 3" id="minus" xmlns="http://www.w3.org/2000/svg"><path d="M1.01 1.539h15" stroke="#000" stroke-width="1.7" stroke-linecap="round" stroke-linejoin="round"/></svg><svg fill="none" viewBox="0 0 17 3" id="minus-red" xmlns="http://www.w3.org/2000/svg"><path d="M1.01 1.539h15" stroke="red" stroke-width="1.7" stroke-linecap="round" stroke-linejoin="round"/></svg><svg fill="none" viewBox="0 0 21 5" id="more-gray" xmlns="http://www.w3.org/2000/svg"><path fill-rule="evenodd" clip-rule="evenodd" d="M8.514 2.641a1.7 1.7 0 113.4 0 1.7 1.7 0 01-3.4 0zm-8.391.036a1.7 1.7 0 113.4 0 1.7 1.7 0 01-3.4 0zM18.605.94a1.7 1.7 0 100 3.4 1.7 1.7 0 000-3.4z" fill="gray"/></svg><svg fill="none" viewBox="0 0 19 23" id="pay-check-red" xmlns="http://www.w3.org/2000/svg"><path d="M11.31 1.547h-8a2 2 0 00-2 2v16a2 2 0 002 2h12a2 2 0 002-2v-12l-6-6z" stroke="red" stroke-width="1.7" stroke-linecap="round" stroke-linejoin="round"/><path d="M11.31 1.547v6h6m-11 7h6" stroke="red" stroke-width="1.7" stroke-linecap="round" stroke-linejoin="round"/></svg><svg fill="none" viewBox="0 0 19 18" id="phone" xmlns="http://www.w3.org/2000/svg"><path d="M17.906 13.183v2.508a1.67 1.67 0 01-1.822 1.671 16.542 16.542 0 01-7.213-2.566 16.3 16.3 0 01-5.016-5.015A16.542 16.542 0 011.29 2.534 1.672 1.672 0 012.953.712H5.46A1.672 1.672 0 017.132 2.15c.106.802.302 1.59.585 2.348a1.672 1.672 0 01-.376 1.764L6.279 7.324a13.374 13.374 0 005.016 5.015l1.061-1.062a1.672 1.672 0 011.764-.376c.758.283 1.546.48 2.349.585a1.672 1.672 0 011.437 1.697z" stroke="#000" stroke-width="1.2" stroke-linecap="round" stroke-linejoin="round"/></svg><svg fill="none" viewBox="0 0 17 18" id="plus" xmlns="http://www.w3.org/2000/svg"><path fill-rule="evenodd" clip-rule="evenodd" d="M9.36 1.539a.85.85 0 00-1.7 0v6.65H1.01a.85.85 0 100 1.7h6.65v6.65a.85.85 0 101.7 0v-6.65h6.65a.85.85 0 000-1.7H9.36v-6.65z" fill="#000"/></svg><svg fill="none" viewBox="0 0 17 18" id="plus-red" xmlns="http://www.w3.org/2000/svg"><path fill-rule="evenodd" clip-rule="evenodd" d="M9.36 1.539a.85.85 0 00-1.7 0v6.65H1.01a.85.85 0 100 1.7h6.65v6.65a.85.85 0 101.7 0v-6.65h6.65a.85.85 0 000-1.7H9.36v-6.65z" fill="red"/></svg><svg fill="none" viewBox="0 0 27 27" id="price" xmlns="http://www.w3.org/2000/svg"><path fill-rule="evenodd" clip-rule="evenodd" d="M1.7.56C.985.56.405 1.14.405 1.857v12.258c0 .343.136.673.38.916l10.528 10.516a3.748 3.748 0 005.302 0l8.788-8.788-.916-.916.919.913a3.747 3.747 0 000-5.283l-.003-.003L14.873.94a1.296 1.296 0 00-.915-.38H1.7zm21.87 14.368h-.002l-8.786 8.787a1.157 1.157 0 01-1.636 0l-.001-.001-10.15-10.137V3.152h10.426l10.147 10.147h.001a1.156 1.156 0 010 1.629zM7.828 6.46a1.524 1.524 0 100 3.048h.014a1.524 1.524 0 000-3.048h-.014z" fill="#fff"/></svg><svg fill="none" viewBox="0 0 17 21" id="rub-red" xmlns="http://www.w3.org/2000/svg"><path d="M9.524 12.385H.01v-1.43h9.514c1.162 0 2.11-.19 2.845-.571.745-.381 1.289-.903 1.634-1.566.345-.662.517-1.415.517-2.26a4.81 4.81 0 00-.517-2.204c-.336-.68-.871-1.23-1.606-1.647-.726-.418-1.684-.626-2.873-.626H4.447v18.376H2.773V.637h6.751c1.452 0 2.673.25 3.662.75.99.49 1.733 1.179 2.232 2.068.509.88.763 1.906.763 3.077 0 1.216-.254 2.264-.763 3.144-.499.871-1.243 1.543-2.232 2.014-.98.463-2.2.695-3.662.695zm-.081 2.014v1.443H.01V14.4h9.433z" fill="red"/></svg><svg fill="none" viewBox="0 0 20 20" id="search" xmlns="http://www.w3.org/2000/svg"><path fill-rule="evenodd" clip-rule="evenodd" d="M2.419 8.514a6.669 6.669 0 1111.46 4.638.861.861 0 00-.152.152 6.669 6.669 0 01-11.308-4.79zM14.374 15a8.369 8.369 0 111.202-1.202l4.107 4.107a.85.85 0 01-1.203 1.202L14.374 15z" fill="#000"/></svg><svg fill="none" viewBox="0 0 14 15" id="search-gray" xmlns="http://www.w3.org/2000/svg"><path fill-rule="evenodd" clip-rule="evenodd" d="M1.785 6.623A4.285 4.285 0 119.16 9.59a.858.858 0 00-.125.125 4.285 4.285 0 01-7.251-3.092zm7.873 4.79a5.985 5.985 0 111.202-1.202l2.635 2.636a.85.85 0 11-1.202 1.202l-2.635-2.636z" fill="#B9B9B9"/></svg><svg fill="none" viewBox="0 0 24 25" id="shopping-bag" xmlns="http://www.w3.org/2000/svg"><path d="M6 2.982l-3 4v14a2 2 0 002 2h14a2 2 0 002-2v-14l-3-4H6zm-3 4h18m-5 4a4 4 0 11-8 0" stroke="#000" stroke-width="1.7" stroke-linecap="round" stroke-linejoin="round"/></svg><svg fill="none" viewBox="0 0 25 23" id="star" xmlns="http://www.w3.org/2000/svg"><path d="M12.127.254l4.114 6.837 7.774 1.8-5.23 6.026.69 7.95-7.348-3.113-7.347 3.113.69-7.95L.239 8.891l7.773-1.8L12.127.254z" fill="red"/></svg><svg fill="none" viewBox="0 0 42 42" id="telegram-dark" xmlns="http://www.w3.org/2000/svg"><path fill-rule="evenodd" clip-rule="evenodd" d="M11.024 20.666c5.188-2.182 8.647-3.621 10.378-4.316 4.942-1.985 5.969-2.33 6.638-2.341.148-.003.477.033.69.2.18.14.23.331.253.465.024.134.053.438.03.676-.268 2.717-1.427 9.31-2.016 12.353-.25 1.288-.74 1.72-1.216 1.762-1.034.092-1.819-.66-2.82-1.293-1.566-.991-2.45-1.608-3.97-2.576-1.758-1.117-.619-1.732.382-2.736.262-.263 4.816-4.262 4.904-4.624.01-.046.021-.215-.083-.304-.104-.09-.258-.059-.368-.035-.157.035-2.66 1.632-7.507 4.79-.71.472-1.353.701-1.93.689-.635-.013-1.857-.347-2.766-.632-1.114-.35-2-.535-1.923-1.129.04-.31.482-.626 1.324-.95z" fill="#000"/><circle cx="20.516" cy="20.905" r="20.266" stroke="#000" stroke-width=".5"/></svg><svg fill="none" viewBox="0 0 24 25" id="track" xmlns="http://www.w3.org/2000/svg"><path d="M16 3.042H1v13h15v-13zm0 5h4l3 3v5h-7v-8zm-10.5 13a2.5 2.5 0 100-5 2.5 2.5 0 000 5zm13 0a2.5 2.5 0 100-5 2.5 2.5 0 000 5z" stroke="#000" stroke-width="1.7" stroke-linecap="round" stroke-linejoin="round"/></svg><svg fill="none" viewBox="0 0 25 25" id="truck-red" xmlns="http://www.w3.org/2000/svg"><g clip-path="url(#boa)" stroke="red" stroke-width="1.7" stroke-linecap="round" stroke-linejoin="round"><path d="M16.44 3.55h-15v13h15v-13zm0 5h4l3 3v5h-7v-8zm-10.5 13a2.5 2.5 0 100-5 2.5 2.5 0 000 5zm13 0a2.5 2.5 0 100-5 2.5 2.5 0 000 5z"/></g><defs><clipPath id="boa"><path fill="#fff" transform="translate(.44 .55)" d="M0 0h24v24H0z"/></clipPath></defs></svg><svg fill="none" viewBox="0 0 42 42" id="vkontakte-dark" xmlns="http://www.w3.org/2000/svg"><circle cx="21.481" cy="20.905" r="20.266" stroke="#000" stroke-width=".5"/><path d="M22.41 28.51c-7.101 0-11.151-5.015-11.32-13.36h3.557c.117 6.125 2.739 8.72 4.815 9.254V15.15h3.35v5.283c2.05-.227 4.205-2.634 4.932-5.283h3.35c-.559 3.264-2.895 5.671-4.557 6.66 1.662.803 4.323 2.903 5.335 6.701h-3.686c-.792-2.54-2.765-4.507-5.374-4.774v4.774h-.403z" fill="#000"/></svg><svg fill="none" viewBox="0 0 42 42" id="whatsapp-dark" xmlns="http://www.w3.org/2000/svg"><path d="M10.582 30.843l1.473-5.35a10.23 10.23 0 01-1.383-5.167c0-5.696 4.658-10.328 10.377-10.328 2.778 0 5.386 1.075 7.342 3.027a10.217 10.217 0 013.036 7.306c0 5.697-4.659 10.329-10.383 10.329h-.005c-1.737 0-3.444-.436-4.962-1.259l-5.495 1.442zm5.759-3.31l.313.19a8.682 8.682 0 004.39 1.198h.005c4.754 0 8.626-3.849 8.626-8.585a8.523 8.523 0 00-2.524-6.073 8.58 8.58 0 00-6.102-2.516c-4.753-.005-8.625 3.844-8.625 8.58 0 1.62.453 3.2 1.319 4.567l.204.327-.871 3.165 3.265-.852z" fill="#000"/><path d="M10.945 30.48l1.424-5.167a9.888 9.888 0 01-1.344-4.983c.005-5.498 4.5-9.972 10.024-9.972a9.978 9.978 0 017.088 2.923 9.887 9.887 0 012.931 7.054c0 5.499-4.499 9.972-10.019 9.972h-.005c-1.677 0-3.325-.421-4.788-1.214l-5.31 1.387z" fill="#fff"/><path d="M10.582 30.843l1.473-5.35a10.23 10.23 0 01-1.383-5.167c0-5.696 4.658-10.328 10.377-10.328 2.778 0 5.386 1.075 7.342 3.027a10.217 10.217 0 013.036 7.306c0 5.697-4.659 10.329-10.383 10.329h-.005c-1.737 0-3.444-.436-4.962-1.259l-5.495 1.442zm5.759-3.31l.313.19a8.682 8.682 0 004.39 1.198h.005c4.754 0 8.626-3.849 8.626-8.585a8.523 8.523 0 00-2.524-6.073 8.58 8.58 0 00-6.102-2.516c-4.753-.005-8.625 3.844-8.625 8.58 0 1.62.453 3.2 1.319 4.567l.204.327-.871 3.165 3.265-.852z" fill="#000"/><path fill-rule="evenodd" clip-rule="evenodd" d="M18.455 16.006c-.194-.431-.398-.441-.582-.446-.15-.005-.324-.005-.498-.005a.956.956 0 00-.692.322c-.239.257-.906.881-.906 2.155 0 1.268.931 2.496 1.06 2.67.13.173 1.797 2.863 4.43 3.898 2.19.862 2.638.689 3.111.644.473-.045 1.533-.624 1.752-1.229.214-.604.214-1.119.15-1.228-.065-.109-.24-.173-.498-.302-.26-.129-1.533-.753-1.772-.842-.24-.085-.413-.13-.583.128-.174.258-.671.838-.82 1.011-.15.173-.304.193-.563.064-.26-.128-1.095-.4-2.086-1.283-.771-.683-1.294-1.53-1.443-1.788-.15-.257-.015-.396.114-.525.115-.114.26-.302.389-.45.129-.15.174-.258.258-.432.085-.173.045-.322-.02-.45-.064-.124-.572-1.402-.8-1.912z" fill="#000"/><circle cx="21" cy="20.905" r="20.266" stroke="#000" stroke-width=".5"/></svg></svg>