<svg viewBox="0 0 27 27" xmlns="http://www.w3.org/2000/svg" xmlns:xlink="http://www.w3.org/1999/xlink"><style>:root&gt;svg{display:none}:root&gt;svg:target{display:block}</style><svg fill="none" viewBox="0 0 9 6" id="arrow-dropdown-bottom" xmlns="http://www.w3.org/2000/svg"><path fill-rule="evenodd" clip-rule="evenodd" d="M1.64 1.032a.75.75 0 10-1.06 1.06l3.535 3.536c.219.22.54.275.81.166a.747.747 0 00.282-.178l3.536-3.535a.75.75 0 10-1.061-1.06L4.655 4.046 1.64 1.032z" fill="#000"/></svg><svg fill="none" viewBox="0 0 10 17" id="arrow-slider-left-light" xmlns="http://www.w3.org/2000/svg"><path fill-rule="evenodd" clip-rule="evenodd" d="M1.075 15.116A1 1 0 002.49 16.53l7.07-7.071a.998.998 0 00.203-.29 1 1 0 00-.196-1.138L2.496.961a1 1 0 10-1.414 1.413l6.367 6.368-6.374 6.374z" fill="#fff"/></svg><svg fill="none" viewBox="0 0 17 17" id="arrow-submit-left" xmlns="http://www.w3.org/2000/svg"><path d="M15.293 7.756a1 1 0 010 1.774l-12.54 6.52c-.86.448-1.791-.472-1.353-1.338l2.84-5.619a1 1 0 000-.902L1.4 2.576c-.438-.867.492-1.787 1.354-1.339l12.54 6.519z" stroke="#000" stroke-width="1.5"/></svg><svg fill="none" viewBox="0 0 23 21" id="basket" xmlns="http://www.w3.org/2000/svg"><path fill-rule="evenodd" clip-rule="evenodd" d="M1.699.804a.85.85 0 100 1.7h2.865l.747 3.733a.846.846 0 00.014.073l1.488 7.432a2.63 2.63 0 002.622 2.118h8.64a2.63 2.63 0 002.621-2.118l.001-.007 1.425-7.47a.85.85 0 00-.835-1.009H6.848l-.754-3.769A.85.85 0 005.26.804H1.7zM8.48 13.41L7.188 6.956H20.26l-1.231 6.455-.001.002a.93.93 0 01-.93.747H9.41a.93.93 0 01-.93-.75zm.084 5.884a.09.09 0 100-.18.09.09 0 000 .18zm-1.61-.09a1.61 1.61 0 113.22 0 1.61 1.61 0 01-3.22 0zm12.08.09a.09.09 0 100-.18.09.09 0 000 .18zm-1.61-.09a1.61 1.61 0 113.22 0 1.61 1.61 0 01-3.22 0z" fill="#000"/></svg><svg fill="none" viewBox="0 0 21 17" id="burger" xmlns="http://www.w3.org/2000/svg"><path fill-rule="evenodd" clip-rule="evenodd" d="M.86.953c0-.47.38-.85.85-.85h18a.85.85 0 010 1.7h-18a.85.85 0 01-.85-.85zm0 7.516c0-.47.382-.85.85-.85h18a.85.85 0 110 1.7h-18a.85.85 0 01-.85-.85zm.85 6.665a.85.85 0 000 1.7h18a.85.85 0 100-1.7h-18z" fill="#000"/></svg><svg fill="none" viewBox="0 0 16 19" id="compare" xmlns="http://www.w3.org/2000/svg"><path d="M13.306 1.097H2.416c-.858 0-1.555.845-1.555 1.889v13.222c0 1.043.697 1.889 1.556 1.889h10.889c.859 0 1.555-.846 1.555-1.89V2.987c0-1.044-.696-1.89-1.555-1.89z" stroke="#000" stroke-width="1.7" stroke-linecap="round" stroke-linejoin="round"/><path d="M6.306 4.874H3.973v8.5h2.333v-8.5zm5.444 0H9.417v4.722h2.333V4.874z" stroke="#000" stroke-width="1.7" stroke-linecap="round" stroke-linejoin="round"/></svg><svg fill="none" viewBox="0 0 16 19" id="compare-gray" xmlns="http://www.w3.org/2000/svg"><path d="M13.306 1.129H2.416c-.858 0-1.555.846-1.555 1.889V16.24c0 1.043.697 1.889 1.556 1.889h10.889c.859 0 1.555-.846 1.555-1.889V3.018c0-1.043-.696-1.889-1.555-1.889z" stroke="gray" stroke-width="1.7" stroke-linecap="round" stroke-linejoin="round"/><path d="M6.306 4.906H3.972v8.5h2.334v-8.5zm5.444 0H9.417V9.63h2.333V4.906z" stroke="gray" stroke-width="1.7" stroke-linecap="round" stroke-linejoin="round"/></svg><svg fill="none" viewBox="0 0 17 20" id="estimate" xmlns="http://www.w3.org/2000/svg"><path d="M10.11 1.597h-7a1.75 1.75 0 00-1.75 1.75v14a1.75 1.75 0 001.75 1.75h10.5a1.75 1.75 0 001.75-1.75v-10.5l-5.25-5.25z" stroke="#000" stroke-width="1.7" stroke-linecap="round" stroke-linejoin="round"/><path d="M10.11 1.597v5.25h5.25m-3.5 4.375h-7m7 3.5h-7m1.75-7H4.86" stroke="#000" stroke-width="1.7" stroke-linecap="round" stroke-linejoin="round"/></svg><svg fill="none" viewBox="0 0 16 20" id="estimate-gray" xmlns="http://www.w3.org/2000/svg"><path d="M9.611 1.52h-7a1.75 1.75 0 00-1.75 1.75v14a1.75 1.75 0 001.75 1.75h10.5a1.75 1.75 0 001.75-1.75V6.77l-5.25-5.25z" stroke="gray" stroke-width="1.7" stroke-linecap="round" stroke-linejoin="round"/><path d="M9.611 1.52v5.25h5.25m-3.5 4.375h-7m7 3.5h-7m1.75-7h-1.75" stroke="gray" stroke-width="1.7" stroke-linecap="round" stroke-linejoin="round"/></svg><svg fill="none" viewBox="0 0 16 21" id="favorites" xmlns="http://www.w3.org/2000/svg"><path d="M14.86 19.597l-7-5-7 5v-16a2 2 0 012-2h10a2 2 0 012 2v16z" stroke="#000" stroke-width="1.7" stroke-linecap="round" stroke-linejoin="round"/></svg><svg fill="none" viewBox="0 0 16 21" id="favorites-gray" xmlns="http://www.w3.org/2000/svg"><path d="M14.86 19.738l-7-5-7 5v-16a2 2 0 012-2h10a2 2 0 012 2v16z" stroke="gray" stroke-width="1.7" stroke-linecap="round" stroke-linejoin="round"/></svg><svg fill="none" viewBox="0 0 18 18" id="location" xmlns="http://www.w3.org/2000/svg"><path d="M15.807 1.165a.636.636 0 01.832.831L10.496 16.81c-.25.602-1.134.485-1.219-.16l-.76-5.782a1.836 1.836 0 00-1.58-1.582l-5.783-.76c-.645-.084-.762-.97-.16-1.218l14.813-6.143z" stroke="#000" stroke-width="1.2"/></svg><svg fill="none" viewBox="0 0 17 19" id="login" xmlns="http://www.w3.org/2000/svg"><path fill-rule="evenodd" clip-rule="evenodd" d="M5.863 5.357a2.711 2.711 0 115.423 0 2.711 2.711 0 01-5.423 0zM8.574.946a4.411 4.411 0 100 8.823 4.411 4.411 0 000-8.823zM5.013 11.63A4.412 4.412 0 00.6 16.043v1.78a.85.85 0 001.7 0v-1.78a2.711 2.711 0 012.712-2.712h7.123a2.712 2.712 0 012.711 2.712v1.78a.85.85 0 001.7 0v-1.78a4.411 4.411 0 00-4.411-4.412H5.013z" fill="#000"/></svg><svg fill="none" viewBox="0 0 17 3" id="minus" xmlns="http://www.w3.org/2000/svg"><path d="M1.01 1.539h15" stroke="#000" stroke-width="1.7" stroke-linecap="round" stroke-linejoin="round"/></svg><svg fill="none" viewBox="0 0 19 18" id="phone" xmlns="http://www.w3.org/2000/svg"><path d="M17.906 13.183v2.508a1.67 1.67 0 01-1.822 1.671 16.542 16.542 0 01-7.213-2.566 16.3 16.3 0 01-5.016-5.015A16.542 16.542 0 011.29 2.534 1.672 1.672 0 012.953.712H5.46A1.672 1.672 0 017.132 2.15c.106.802.302 1.59.585 2.348a1.672 1.672 0 01-.376 1.764L6.279 7.324a13.374 13.374 0 005.016 5.015l1.061-1.062a1.672 1.672 0 011.764-.376c.758.283 1.546.48 2.349.585a1.672 1.672 0 011.437 1.697z" stroke="#000" stroke-width="1.2" stroke-linecap="round" stroke-linejoin="round"/></svg><svg fill="none" viewBox="0 0 17 18" id="plus" xmlns="http://www.w3.org/2000/svg"><path fill-rule="evenodd" clip-rule="evenodd" d="M9.36 1.539a.85.85 0 00-1.7 0v6.65H1.01a.85.85 0 100 1.7h6.65v6.65a.85.85 0 101.7 0v-6.65h6.65a.85.85 0 000-1.7H9.36v-6.65z" fill="#000"/></svg><svg fill="none" viewBox="0 0 27 27" id="price" xmlns="http://www.w3.org/2000/svg"><path fill-rule="evenodd" clip-rule="evenodd" d="M1.7.56C.985.56.405 1.14.405 1.857v12.258c0 .343.136.673.38.916l10.528 10.516a3.748 3.748 0 005.302 0l8.788-8.788-.916-.916.919.913a3.747 3.747 0 000-5.283l-.003-.003L14.873.94a1.296 1.296 0 00-.915-.38H1.7zm21.87 14.368h-.002l-8.786 8.787a1.157 1.157 0 01-1.636 0l-.001-.001-10.15-10.137V3.152h10.426l10.147 10.147h.001a1.156 1.156 0 010 1.629zM7.828 6.46a1.524 1.524 0 100 3.048h.014a1.524 1.524 0 000-3.048h-.014z" fill="#fff"/></svg><svg fill="none" viewBox="0 0 14 15" id="search" xmlns="http://www.w3.org/2000/svg"><path fill-rule="evenodd" clip-rule="evenodd" d="M1.785 6.623A4.285 4.285 0 119.16 9.59a.858.858 0 00-.125.125 4.285 4.285 0 01-7.251-3.092zm7.873 4.79a5.985 5.985 0 111.202-1.202l2.635 2.636a.85.85 0 11-1.202 1.202l-2.635-2.636z" fill="#B9B9B9"/></svg></svg>