<svg width="143" height="66" fill="none" xmlns="http://www.w3.org/2000/svg"><g clip-path="url(#clip0_1_177)"><path fill-rule="evenodd" clip-rule="evenodd" d="M15.775 29.127h-4.487v10.908h4.487V29.127zm9.91-1.213V19.83l-4.808 4.4 4.808 3.684zM41.604 9.493h-4.636v10.914h4.636V9.493zm9.191 18.78v-6.694l-3.929 3.419 3.93 3.274zm11.312-18.78v30.542h4.596V9.493h-4.596zm13.989-3.806V.253h18.021L98.14 5.22v9.24L85.023 40.034h13.144v9.24H78.06l-3.079-4.21-4.228 4.21H58.229l-5.745-5.52v5.52h-10.88V29.64h-4.636v19.634H25.685V43.5l-6.02 5.775H0V.253h19.664l6.021 5.683V.253h19.24l6.715 6.353L58.224.253h12.115l5.757 5.434zm11.8 3.806H77.882v19.46l10.014-19.46zm-72.12 0h-4.488v10.394h4.487V9.493z" fill="#fff"/><path d="M116.093 9.138l-.209-.547h-7.307v10.94h7.825v7.452h-7.825v13.873h6.843l.202-.563 5.877-16.412.106-.296-.112-.293-5.4-14.154zm11.821 5.192l3.504-13.227h9.502l-8.043 22.202-.105.29.105.29 8.909 24.5h-9.605l-4.289-13.691-.829-2.646-.796 2.656-4.104 13.68h-23.22l.04-47.28h23.719l3.57 13.23.828 3.07.814-3.074z" stroke="#fff" stroke-width="1.7"/><path fill-rule="evenodd" clip-rule="evenodd" d="M95.83 59.854h-.995v-4.44h.994v4.44zm.953 1.958l1.453-1.502v-5.376l-1.47-1.478h-4.372v11.797h2.424V61.79l1.965.023zm-13.753-8.39v9.816h-1v-9.817h-2.424v10.32l1.476 1.478h2.873l1.47-1.478V53.42H83.03zm-12.673 9.874h-1v-7.883h1v7.883zm2.418-8.362l-1.47-1.478h-2.902l-1.47 1.478v8.841l1.47 1.484h2.902l1.47-1.484v-8.84zm-15.08 10.32h2.424v-5.036l-.947-.855.947-.86v-3.569l-1.47-1.478h-4.372v11.797H56.7V60.31h.994v4.944zm-.994-6.878v-2.963h.994v2.963h-.994zm-12.184.97v1.958h.505v1.992h-.994v-7.883h.994v2.963h2.424V54.91l-1.488-1.455h-2.872l-1.47 1.478v8.841l1.47 1.479h2.872l1.488-1.479v-4.423l-2.93-.006z" fill="#fff"/></g><defs><clipPath id="clip0_1_177"><path fill="#fff" transform="translate(0 .253)" d="M0 0h143v65H0z"/></clipPath></defs></svg>