<svg width="103" height="36" fill="none" xmlns="http://www.w3.org/2000/svg"><g clip-path="url(#clip0_1_509)" fill-rule="evenodd" clip-rule="evenodd"><path d="M12.113 20.299h-3.2v7.72h3.2v-7.72zm7.068-.858v-5.722l-3.43 3.114 3.43 2.608zM30.536 6.404h-3.307v7.724h3.307V6.404zm6.556 13.29v-4.736l-2.803 2.419 2.803 2.317zm8.069-13.29v21.615h3.278V6.404H45.16zm9.977-2.693V-.135h12.855l2.868 3.515v6.539l-9.355 18.1h9.376v6.538H56.54l-2.196-2.979-3.016 2.98h-8.933l-4.098-3.908v3.907h-7.761V20.662h-3.307v13.895h-8.048v-4.086l-4.294 4.086H.86V-.135h14.027l4.294 4.022V-.135h13.723l4.79 4.496 4.697-4.496h8.642l4.105 3.846zm8.417 2.693h-7.142v13.772l7.142-13.772zm-51.442 0h-3.2v7.356h3.2V6.404z" fill="red"/><path d="M83.1 6.367h-4.187v6.539h5.581v6.477h-5.581v8.615h3.848l4.192-11.614L83.1 6.367zM70.858-.135h17.989l2.667 9.808 2.619-9.808h8.109L96.21 16.384l6.651 18.145h-8.163l-3.192-10.11-3.057 10.11h-17.62l.029-34.664z" fill="#192864"/></g><defs><clipPath id="clip0_1_509"><path fill="#fff" transform="translate(.86 .033)" d="M0 0h102v35H0z"/></clipPath></defs></svg>