<svg viewBox="0 0 35 35" xmlns="http://www.w3.org/2000/svg" xmlns:xlink="http://www.w3.org/1999/xlink"><style>:root&gt;svg{display:none}:root&gt;svg:target{display:block}</style><svg fill="none" viewBox="0 0 34 35" id="social-telegram-light" xmlns="http://www.w3.org/2000/svg"><path fill-rule="evenodd" clip-rule="evenodd" d="M9.481 17.52c4.228-1.777 7.046-2.95 8.457-3.516 4.026-1.617 4.863-1.898 5.408-1.907.12-.002.389.026.562.162.147.115.187.27.207.38.019.108.043.357.024.55-.218 2.214-1.162 7.586-1.643 10.066-.203 1.049-.603 1.4-.99 1.435-.843.075-1.482-.537-2.298-1.053-1.276-.808-1.997-1.31-3.236-2.099-1.431-.91-.503-1.412.313-2.23.213-.214 3.923-3.472 3.995-3.768.009-.036.017-.174-.068-.247-.084-.073-.21-.048-.3-.028-.128.028-2.166 1.329-6.116 3.903-.579.384-1.103.57-1.572.56-.518-.01-1.514-.282-2.254-.514-.908-.285-1.63-.436-1.567-.92.032-.252.392-.51 1.078-.773z" fill="#fff"/><circle cx="17.211" cy="17.715" r="16.466" stroke="#fff" stroke-width=".5"/></svg><svg fill="none" viewBox="0 0 35 35" id="social-vkontakte-light" xmlns="http://www.w3.org/2000/svg"><circle cx="17.593" cy="17.715" r="16.466" stroke="#fff" stroke-width=".5"/><path d="M18.349 23.912c-5.786 0-9.086-4.087-9.223-10.887h2.898c.095 4.991 2.232 7.105 3.924 7.541v-7.54h2.729v4.304c1.671-.186 3.427-2.147 4.019-4.305h2.729c-.455 2.66-2.359 4.62-3.713 5.427 1.354.654 3.523 2.365 4.348 5.46h-3.004c-.646-2.07-2.253-3.673-4.38-3.89v3.89h-.327z" fill="#fff"/></svg><svg fill="none" viewBox="0 0 34 35" id="social-whatsapp-light" xmlns="http://www.w3.org/2000/svg"><path d="M8.41 25.812l1.2-4.36a8.335 8.335 0 01-1.127-4.209c0-4.641 3.796-8.415 8.455-8.415a8.41 8.41 0 015.982 2.466 8.325 8.325 0 012.474 5.953c0 4.642-3.796 8.416-8.46 8.416h-.004a8.495 8.495 0 01-4.043-1.026L8.41 25.813zm4.692-2.696l.255.153a7.075 7.075 0 003.577.977h.004c3.873 0 7.029-3.136 7.029-6.995 0-1.869-.73-3.624-2.057-4.948a6.992 6.992 0 00-4.972-2.05c-3.873-.005-7.028 3.131-7.028 6.99 0 1.32.37 2.608 1.075 3.722l.166.266-.71 2.58 2.66-.695z" fill="#fff"/><path d="M8.706 25.517l1.16-4.21a8.057 8.057 0 01-1.095-4.06c.004-4.48 3.666-8.125 8.167-8.125a8.13 8.13 0 015.775 2.382 8.055 8.055 0 012.39 5.747c0 4.48-3.667 8.125-8.165 8.125h-.004a8.198 8.198 0 01-3.901-.989l-4.327 1.13z" fill="#192864"/><path d="M8.41 25.812l1.2-4.36a8.335 8.335 0 01-1.127-4.209c0-4.641 3.796-8.415 8.455-8.415a8.41 8.41 0 015.982 2.466 8.325 8.325 0 012.474 5.953c0 4.642-3.796 8.416-8.46 8.416h-.004a8.495 8.495 0 01-4.043-1.026L8.41 25.813zm4.692-2.696l.255.153a7.075 7.075 0 003.577.977h.004c3.873 0 7.029-3.136 7.029-6.995 0-1.869-.73-3.624-2.057-4.948a6.992 6.992 0 00-4.972-2.05c-3.873-.005-7.028 3.131-7.028 6.99 0 1.32.37 2.608 1.075 3.722l.166.266-.71 2.58 2.66-.695z" fill="#fff"/><path fill-rule="evenodd" clip-rule="evenodd" d="M14.825 13.723c-.158-.35-.324-.359-.474-.363-.122-.004-.264-.004-.406-.004a.78.78 0 00-.563.263c-.195.21-.738.718-.738 1.755 0 1.034.758 2.035.863 2.176.106.141 1.465 2.333 3.61 3.176 1.784.703 2.15.561 2.534.525.386-.036 1.25-.509 1.428-1.001.174-.492.174-.912.122-1-.053-.09-.195-.142-.406-.247-.21-.105-1.249-.614-1.444-.686-.194-.069-.336-.105-.474.105-.142.21-.548.682-.67.823-.12.141-.247.157-.457.052-.211-.104-.893-.326-1.7-1.045-.628-.557-1.054-1.247-1.176-1.457-.122-.21-.012-.323.093-.428.094-.093.211-.246.317-.367.105-.121.142-.21.21-.351.07-.141.037-.263-.016-.367-.052-.101-.466-1.143-.652-1.559z" fill="#fff"/><circle cx="16.902" cy="17.715" r="16.466" stroke="#fff" stroke-width=".5"/></svg><svg fill="none" viewBox="0 0 34 35" id="social-youtube-light" xmlns="http://www.w3.org/2000/svg"><circle cx="17.284" cy="17.715" r="16.466" stroke="#fff" stroke-width=".5"/><path d="M26.521 12.86a2.506 2.506 0 00-1.763-1.763c-1.565-.428-7.826-.428-7.826-.428s-6.26 0-7.826.411a2.56 2.56 0 00-1.763 1.78c-.412 1.565-.412 4.81-.412 4.81s0 3.263.412 4.812c.23.856.906 1.532 1.763 1.763 1.582.428 7.826.428 7.826.428s6.26 0 7.826-.412a2.506 2.506 0 001.763-1.763c.412-1.565.412-4.81.412-4.81s.016-3.263-.412-4.828z" fill="#fff"/><path d="M14.938 20.67l5.207-3-5.207-2.998v5.997z" fill="#192864"/></svg></svg>