<svg width="23" height="21" viewBox="0 0 23 21" fill="none" xmlns="http://www.w3.org/2000/svg">
<path fill-rule="evenodd" clip-rule="evenodd" d="M1.69888 0.804321C1.22943 0.804321 0.848877 1.18488 0.848877 1.65432C0.848877 2.12376 1.22943 2.50432 1.69888 2.50432H4.5636L5.31075 6.23728C5.31457 6.26193 5.31944 6.28623 5.32533 6.31013L6.81279 13.7419L6.81293 13.7426C6.93332 14.3479 7.26271 14.8916 7.74347 15.2786C8.22211 15.6639 8.82044 15.8695 9.43463 15.8598H18.0742C18.6884 15.8695 19.2867 15.6639 19.7653 15.2786C20.2463 14.8915 20.5757 14.3475 20.696 13.7419L20.696 13.7419L20.6973 13.7355L22.1218 6.26537C22.1693 6.01653 22.1033 5.7595 21.9418 5.56431C21.7803 5.36913 21.5402 5.25614 21.2869 5.25614H6.84809L6.0938 1.4875C6.01429 1.09025 5.66547 0.804321 5.26033 0.804321H1.69888ZM8.47998 13.4095L7.18835 6.95614H20.2595L19.0286 13.4107L19.028 13.4134C18.985 13.6266 18.8688 13.818 18.6993 13.9544C18.5292 14.0914 18.3163 14.1641 18.0979 14.1599L18.0816 14.1598H9.42724L9.41095 14.1599C9.19255 14.1641 8.97964 14.0914 8.80949 13.9544C8.63933 13.8174 8.52278 13.625 8.48022 13.4107L8.47998 13.4095ZM8.56355 19.2934C8.61316 19.2934 8.65337 19.2532 8.65337 19.2036C8.65337 19.154 8.61316 19.1137 8.56355 19.1137C8.51395 19.1137 8.47373 19.154 8.47373 19.2036C8.47373 19.2532 8.51395 19.2934 8.56355 19.2934ZM6.95337 19.2036C6.95337 18.3143 7.67427 17.5934 8.56355 17.5934C9.45283 17.5934 10.1737 18.3143 10.1737 19.2036C10.1737 20.0928 9.45283 20.8137 8.56355 20.8137C7.67427 20.8137 6.95337 20.0928 6.95337 19.2036ZM19.0343 19.2934C19.0839 19.2934 19.1241 19.2532 19.1241 19.2036C19.1241 19.154 19.0839 19.1137 19.0343 19.1137C18.9846 19.1137 18.9444 19.154 18.9444 19.2036C18.9444 19.2532 18.9846 19.2934 19.0343 19.2934ZM17.4241 19.2036C17.4241 18.3143 18.145 17.5934 19.0343 17.5934C19.9235 17.5934 20.6444 18.3143 20.6444 19.2036C20.6444 20.0928 19.9235 20.8137 19.0343 20.8137C18.145 20.8137 17.4241 20.0928 17.4241 19.2036Z" fill="black"/>
</svg>
