<svg width="22" height="21" viewBox="0 0 22 21" fill="none" xmlns="http://www.w3.org/2000/svg">
<path fill-rule="evenodd" clip-rule="evenodd" d="M1.31222 0.613281C0.842777 0.613281 0.462219 0.993839 0.462219 1.46328C0.462219 1.93272 0.842777 2.31328 1.31222 2.31328H4.17694L4.92409 6.04624C4.92791 6.07089 4.93279 6.09519 4.93867 6.11909L6.42614 13.5508L6.42627 13.5515C6.54667 14.1568 6.87605 14.7006 7.35682 15.0876C7.83545 15.4729 8.43378 15.6784 9.04797 15.6687H17.6875C18.3017 15.6784 18.9 15.4729 19.3787 15.0876C19.8596 14.7004 20.1891 14.1564 20.3094 13.5508L20.3094 13.5509L20.3106 13.5445L21.7352 6.07433C21.7826 5.82549 21.7166 5.56846 21.5551 5.37327C21.3937 5.17809 21.1535 5.0651 20.9002 5.0651H6.46144L5.70714 1.29646C5.62763 0.899209 5.27881 0.613281 4.87367 0.613281H1.31222ZM8.09332 13.2184L6.80169 6.7651H19.8728L18.6419 13.2197L18.6414 13.2224C18.5984 13.4355 18.4821 13.627 18.3127 13.7633C18.1425 13.9003 17.9296 13.9731 17.7112 13.9689L17.6949 13.9687H9.04058L9.02429 13.9689C8.8059 13.9731 8.59298 13.9003 8.42283 13.7633C8.25268 13.6264 8.13612 13.4339 8.09356 13.2197L8.09332 13.2184ZM8.17689 19.1023C8.2265 19.1023 8.26671 19.0621 8.26671 19.0125C8.26671 18.9629 8.2265 18.9227 8.17689 18.9227C8.12729 18.9227 8.08708 18.9629 8.08708 19.0125C8.08708 19.0621 8.12729 19.1023 8.17689 19.1023ZM6.56671 19.0125C6.56671 18.1232 7.28761 17.4023 8.17689 17.4023C9.06617 17.4023 9.78708 18.1232 9.78708 19.0125C9.78708 19.9018 9.06617 20.6227 8.17689 20.6227C7.28761 20.6227 6.56671 19.9018 6.56671 19.0125ZM18.6476 19.1023C18.6972 19.1023 18.7374 19.0621 18.7374 19.0125C18.7374 18.9629 18.6972 18.9227 18.6476 18.9227C18.598 18.9227 18.5578 18.9629 18.5578 19.0125C18.5578 19.0621 18.598 19.1023 18.6476 19.1023ZM17.0374 19.0125C17.0374 18.1232 17.7583 17.4023 18.6476 17.4023C19.5369 17.4023 20.2578 18.1232 20.2578 19.0125C20.2578 19.9018 19.5369 20.6227 18.6476 20.6227C17.7583 20.6227 17.0374 19.9018 17.0374 19.0125Z" fill="#808080"/>
</svg>
