<svg width="21" height="17" viewBox="0 0 21 17" fill="none" xmlns="http://www.w3.org/2000/svg">
<path fill-rule="evenodd" clip-rule="evenodd" d="M0.859962 0.953149C0.859962 0.483707 1.24052 0.103149 1.70996 0.103149H19.71C20.1794 0.103149 20.56 0.483707 20.56 0.953149C20.56 1.42259 20.1794 1.80315 19.71 1.80315H1.70996C1.24052 1.80315 0.859962 1.42259 0.859962 0.953149ZM0.860939 8.46877C0.860939 7.99933 1.2415 7.61877 1.71094 7.61877H19.7109C20.1804 7.61877 20.5609 7.99933 20.5609 8.46877C20.5609 8.93822 20.1804 9.31878 19.7109 9.31878H1.71094C1.2415 9.31878 0.860939 8.93822 0.860939 8.46877ZM1.71094 15.1344C1.2415 15.1344 0.860939 15.515 0.860939 15.9844C0.860939 16.4538 1.2415 16.8344 1.71094 16.8344H19.7109C20.1804 16.8344 20.5609 16.4538 20.5609 15.9844C20.5609 15.515 20.1804 15.1344 19.7109 15.1344H1.71094Z" fill="black"/>
</svg>
