<svg width="21" height="17" viewBox="0 0 21 17" fill="none" xmlns="http://www.w3.org/2000/svg">
<path fill-rule="evenodd" clip-rule="evenodd" d="M0.852173 0.885156C0.852173 0.415714 1.23273 0.0351562 1.70217 0.0351562H19.7022C20.1716 0.0351562 20.5522 0.415714 20.5522 0.885156C20.5522 1.3546 20.1716 1.73516 19.7022 1.73516H1.70217C1.23273 1.73516 0.852173 1.3546 0.852173 0.885156ZM0.853149 8.40078C0.853149 7.93134 1.23371 7.55078 1.70315 7.55078H19.7031C20.1726 7.55078 20.5532 7.93134 20.5532 8.40078C20.5532 8.87022 20.1726 9.25078 19.7031 9.25078H1.70315C1.23371 9.25078 0.853149 8.87022 0.853149 8.40078ZM1.70315 15.0664C1.23371 15.0664 0.853149 15.447 0.853149 15.9164C0.853149 16.3858 1.23371 16.7664 1.70315 16.7664H19.7031C20.1726 16.7664 20.5532 16.3858 20.5532 15.9164C20.5532 15.447 20.1726 15.0664 19.7031 15.0664H1.70315Z" fill="#808080"/>
</svg>
