<svg width="15" height="15" viewBox="0 0 15 15" fill="none" xmlns="http://www.w3.org/2000/svg">
<path fill-rule="evenodd" clip-rule="evenodd" d="M14.5383 1.47253C14.8703 1.14058 14.8703 0.602389 14.5383 0.270444C14.2064 -0.061502 13.6682 -0.0615021 13.3363 0.270444L7.57402 6.03268L1.81187 0.270541C1.47993 -0.0614044 0.941738 -0.0614044 0.609792 0.270541C0.277846 0.602487 0.277846 1.14068 0.609792 1.47262L6.37193 7.23477L0.608334 12.9984C0.276389 13.3303 0.276389 13.8685 0.608334 14.2004C0.94028 14.5324 1.47847 14.5324 1.81042 14.2004L7.57402 8.43685L13.3377 14.2005C13.6697 14.5325 14.2078 14.5325 14.5398 14.2005C14.8717 13.8686 14.8717 13.3304 14.5398 12.9985L8.7761 7.23477L14.5383 1.47253Z" fill="black"/>
</svg>
