<svg width="17" height="20" viewBox="0 0 17 20" fill="none" xmlns="http://www.w3.org/2000/svg">
<path d="M10.1104 1.59668H3.11035C2.64622 1.59668 2.2011 1.78105 1.87291 2.10924C1.54473 2.43743 1.36035 2.88255 1.36035 3.34668V17.3467C1.36035 17.8108 1.54473 18.2559 1.87291 18.5841C2.2011 18.9123 2.64622 19.0967 3.11035 19.0967H13.6104C14.0745 19.0967 14.5196 18.9123 14.8478 18.5841C15.176 18.2559 15.3604 17.8108 15.3604 17.3467V6.84668L10.1104 1.59668Z" stroke="black" stroke-width="1.7" stroke-linecap="round" stroke-linejoin="round"/>
<path d="M10.1104 1.59668V6.84668H15.3604" stroke="black" stroke-width="1.7" stroke-linecap="round" stroke-linejoin="round"/>
<path d="M11.8604 11.2217H4.86035" stroke="black" stroke-width="1.7" stroke-linecap="round" stroke-linejoin="round"/>
<path d="M11.8604 14.7217H4.86035" stroke="black" stroke-width="1.7" stroke-linecap="round" stroke-linejoin="round"/>
<path d="M6.61035 7.72168H5.73535H4.86035" stroke="black" stroke-width="1.7" stroke-linecap="round" stroke-linejoin="round"/>
</svg>
