<svg width="16" height="20" viewBox="0 0 16 20" fill="none" xmlns="http://www.w3.org/2000/svg">
<path d="M9.61115 1.51965H2.61115C2.14702 1.51965 1.7019 1.70403 1.37371 2.03222C1.04552 2.36041 0.861145 2.80552 0.861145 3.26965V17.2697C0.861145 17.7338 1.04552 18.1789 1.37371 18.5071C1.7019 18.8353 2.14702 19.0197 2.61115 19.0197H13.1111C13.5753 19.0197 14.0204 18.8353 14.3486 18.5071C14.6768 18.1789 14.8611 17.7338 14.8611 17.2697V6.76965L9.61115 1.51965Z" stroke="#808080" stroke-width="1.7" stroke-linecap="round" stroke-linejoin="round"/>
<path d="M9.61115 1.51965V6.76965H14.8611" stroke="#808080" stroke-width="1.7" stroke-linecap="round" stroke-linejoin="round"/>
<path d="M11.3611 11.1447H4.36115" stroke="#808080" stroke-width="1.7" stroke-linecap="round" stroke-linejoin="round"/>
<path d="M11.3611 14.6447H4.36115" stroke="#808080" stroke-width="1.7" stroke-linecap="round" stroke-linejoin="round"/>
<path d="M6.11115 7.64465H5.23615H4.36115" stroke="#808080" stroke-width="1.7" stroke-linecap="round" stroke-linejoin="round"/>
</svg>
