<svg width="23" height="17" viewBox="0 0 23 17" fill="none" xmlns="http://www.w3.org/2000/svg">
<path fill-rule="evenodd" clip-rule="evenodd" d="M15.5187 2.29766C14.2065 2.29766 13.1427 3.36143 13.1427 4.67367C13.1427 5.9859 14.2065 7.04967 15.5187 7.04967C16.831 7.04967 17.8948 5.9859 17.8948 4.67367C17.8948 3.36143 16.831 2.29766 15.5187 2.29766ZM0.923566 5.52422H11.5316C11.9228 7.36706 13.5593 8.74967 15.5187 8.74967C17.4782 8.74967 19.1147 7.36706 19.5059 5.52422H21.2177C21.6871 5.52422 22.0677 5.14366 22.0677 4.67422C22.0677 4.20478 21.6871 3.82422 21.2177 3.82422H19.5061C19.1153 1.98082 17.4786 0.597656 15.5187 0.597656C13.5589 0.597656 11.9222 1.98082 11.5314 3.82422H0.923566C0.454124 3.82422 0.0735662 4.20478 0.0735662 4.67422C0.0735662 5.14366 0.454124 5.52422 0.923566 5.52422ZM6.62218 14.5156C7.93441 14.5156 8.99819 13.4518 8.99819 12.1396C8.99819 10.8274 7.93441 9.76361 6.62218 9.76361C5.30994 9.76361 4.24617 10.8274 4.24617 12.1396C4.24617 13.4518 5.30994 14.5156 6.62218 14.5156ZM21.2174 11.2891L10.6093 11.2891C10.2181 9.44622 8.58161 8.06361 6.62218 8.06361C4.66275 8.06361 3.02624 9.44622 2.63504 11.2891H0.923243C0.453801 11.2891 0.0732422 11.6696 0.0732422 12.1391C0.0732422 12.6085 0.4538 12.9891 0.923243 12.9891H2.63481C3.02559 14.8325 4.66236 16.2156 6.62218 16.2156C8.582 16.2156 10.2188 14.8325 10.6095 12.9891L21.2174 12.9891C21.6868 12.9891 22.0674 12.6085 22.0674 12.1391C22.0674 11.6696 21.6868 11.2891 21.2174 11.2891Z" fill="black"/>
</svg>
