<svg width="22" height="22" viewBox="0 0 22 22" fill="none" xmlns="http://www.w3.org/2000/svg">
<path d="M16.0312 1.69854C16.2939 1.4359 16.6057 1.22756 16.9489 1.08542C17.292 0.943276 17.6598 0.870117 18.0312 0.870117C18.4027 0.870117 18.7705 0.943276 19.1136 1.08542C19.4568 1.22756 19.7686 1.4359 20.0312 1.69854C20.2939 1.96119 20.5022 2.27299 20.6444 2.61615C20.7865 2.95931 20.8597 3.32711 20.8597 3.69854C20.8597 4.06998 20.7865 4.43778 20.6444 4.78094C20.5022 5.1241 20.2939 5.4359 20.0312 5.69854L6.53125 19.1985L1.03125 20.6985L2.53125 15.1985L16.0312 1.69854Z" stroke="black" stroke-width="1.7" stroke-linecap="round" stroke-linejoin="round"/>
</svg>
