<svg width="17" height="19" viewBox="0 0 17 19" fill="none" xmlns="http://www.w3.org/2000/svg">
<path fill-rule="evenodd" clip-rule="evenodd" d="M5.86272 5.35738C5.86272 3.85988 7.07668 2.64592 8.57418 2.64592C10.0717 2.64592 11.2856 3.85988 11.2856 5.35738C11.2856 6.85487 10.0717 8.06883 8.57418 8.06883C7.07668 8.06883 5.86272 6.85487 5.86272 5.35738ZM8.57418 0.945923C6.1378 0.945923 4.16272 2.921 4.16272 5.35738C4.16272 7.79376 6.1378 9.76883 8.57418 9.76883C11.0106 9.76883 12.9856 7.79376 12.9856 5.35738C12.9856 2.921 11.0106 0.945923 8.57418 0.945923ZM5.01265 11.6305C3.84266 11.6305 2.72059 12.0953 1.89328 12.9226C1.06597 13.7499 0.601196 14.872 0.601196 16.0419V17.8227C0.601196 18.2921 0.981754 18.6727 1.4512 18.6727C1.92064 18.6727 2.3012 18.2921 2.3012 17.8227V16.0419C2.3012 15.3228 2.58687 14.6332 3.09536 14.1247C3.60386 13.6162 4.29353 13.3305 5.01265 13.3305H12.1356C12.8547 13.3305 13.5444 13.6162 14.0529 14.1247C14.5613 14.6332 14.847 15.3228 14.847 16.0419V17.8227C14.847 18.2921 15.2276 18.6727 15.697 18.6727C16.1665 18.6727 16.547 18.2921 16.547 17.8227V16.0419C16.547 14.872 16.0822 13.7499 15.2549 12.9226C14.4276 12.0953 13.3056 11.6305 12.1356 11.6305H5.01265Z" fill="black"/>
</svg>
