<svg width="17" height="19" viewBox="0 0 17 19" fill="none" xmlns="http://www.w3.org/2000/svg">
<path fill-rule="evenodd" clip-rule="evenodd" d="M5.42375 5.16536C5.42375 3.66787 6.63771 2.45391 8.13521 2.45391C9.63271 2.45391 10.8467 3.66787 10.8467 5.16536C10.8467 6.66286 9.63271 7.87682 8.13521 7.87682C6.63771 7.87682 5.42375 6.66286 5.42375 5.16536ZM8.13521 0.753906C5.69883 0.753906 3.72375 2.72898 3.72375 5.16536C3.72375 7.60174 5.69883 9.57682 8.13521 9.57682C10.5716 9.57682 12.5467 7.60174 12.5467 5.16536C12.5467 2.72898 10.5716 0.753906 8.13521 0.753906ZM4.57369 11.4385C3.4037 11.4385 2.28162 11.9033 1.45432 12.7306C0.627008 13.5579 0.162231 14.6799 0.162231 15.8499V17.6307C0.162231 18.1001 0.542789 18.4807 1.01223 18.4807C1.48167 18.4807 1.86223 18.1001 1.86223 17.6307V15.8499C1.86223 15.1308 2.1479 14.4411 2.6564 13.9326C3.1649 13.4241 3.85456 13.1385 4.57369 13.1385H11.6966C12.4157 13.1385 13.1054 13.4241 13.6139 13.9326C14.1224 14.4411 14.4081 15.1308 14.4081 15.8499V17.6307C14.4081 18.1001 14.7886 18.4807 15.2581 18.4807C15.7275 18.4807 16.1081 18.1001 16.1081 17.6307V15.8499C16.1081 14.6799 15.6433 13.5579 14.816 12.7306C13.9887 11.9033 12.8666 11.4385 11.6966 11.4385H4.57369Z" fill="#808080"/>
</svg>
