<svg width="25" height="25" viewBox="0 0 25 25" fill="none" xmlns="http://www.w3.org/2000/svg">
<g clip-path="url(#clip0_104_7874)">
<path d="M21.0957 10.5508C21.0957 17.5508 12.0957 23.5508 12.0957 23.5508C12.0957 23.5508 3.0957 17.5508 3.0957 10.5508C3.0957 8.16383 4.04391 5.87465 5.73174 4.18682C7.41957 2.49899 9.70875 1.55078 12.0957 1.55078C14.4827 1.55078 16.7718 2.49899 18.4597 4.18682C20.1475 5.87465 21.0957 8.16383 21.0957 10.5508Z" stroke="#FF0000" stroke-width="1.7" stroke-linecap="round" stroke-linejoin="round"/>
<path d="M12.0957 13.5508C13.7526 13.5508 15.0957 12.2076 15.0957 10.5508C15.0957 8.89393 13.7526 7.55078 12.0957 7.55078C10.4388 7.55078 9.0957 8.89393 9.0957 10.5508C9.0957 12.2076 10.4388 13.5508 12.0957 13.5508Z" stroke="#FF0000" stroke-width="1.7" stroke-linecap="round" stroke-linejoin="round"/>
</g>
<defs>
<clipPath id="clip0_104_7874">
<rect width="24" height="24" fill="white" transform="translate(0.0957031 0.550781)"/>
</clipPath>
</defs>
</svg>
