<svg width="21" height="5" viewBox="0 0 21 5" fill="none" xmlns="http://www.w3.org/2000/svg">
<path fill-rule="evenodd" clip-rule="evenodd" d="M8.51416 2.64141C8.51416 1.70252 9.27528 0.941406 10.2142 0.941406C11.153 0.941406 11.9142 1.70252 11.9142 2.64141C11.9142 3.58029 11.153 4.34141 10.2142 4.34141C9.27528 4.34141 8.51416 3.58029 8.51416 2.64141ZM0.123047 2.67656C0.123047 1.73768 0.884163 0.976562 1.82305 0.976562C2.76193 0.976562 3.52305 1.73768 3.52305 2.67656C3.52305 3.61545 2.76193 4.37656 1.82305 4.37656C0.884163 4.37656 0.123047 3.61545 0.123047 2.67656ZM18.6053 0.941406C17.6664 0.941406 16.9053 1.70252 16.9053 2.64141C16.9053 3.58029 17.6664 4.34141 18.6053 4.34141C19.5442 4.34141 20.3053 3.58029 20.3053 2.64141C20.3053 1.70252 19.5442 0.941406 18.6053 0.941406Z" fill="#808080"/>
</svg>
