<svg width="19" height="18" viewBox="0 0 19 18" fill="none" xmlns="http://www.w3.org/2000/svg">
<path d="M17.9063 13.183V15.6906C17.9073 15.9234 17.8596 16.1538 17.7663 16.3671C17.6731 16.5804 17.5363 16.7719 17.3648 16.9293C17.1932 17.0866 16.9907 17.2065 16.7702 17.281C16.5497 17.3556 16.316 17.3833 16.0842 17.3624C13.5121 17.0829 11.0414 16.204 8.87067 14.7963C6.85109 13.5129 5.13883 11.8007 3.8555 9.78109C2.44288 7.6005 1.56377 5.11782 1.28941 2.53417C1.26852 2.30303 1.29599 2.07007 1.37007 1.85012C1.44415 1.63018 1.56321 1.42807 1.71968 1.25666C1.87615 1.08525 2.0666 0.948301 2.27889 0.854528C2.49119 0.760755 2.72069 0.712214 2.95277 0.711995H5.46036C5.86601 0.708003 6.25927 0.85165 6.56684 1.11616C6.87441 1.38067 7.07531 1.748 7.13208 2.14968C7.23792 2.95216 7.4342 3.74009 7.71718 4.49845C7.82964 4.79762 7.85398 5.12276 7.78732 5.43535C7.72065 5.74793 7.56578 6.03485 7.34104 6.26212L6.2795 7.32366C7.4694 9.41628 9.20205 11.1489 11.2947 12.3388L12.3562 11.2773C12.5835 11.0526 12.8704 10.8977 13.183 10.831C13.4956 10.7643 13.8207 10.7887 14.1199 10.9011C14.8782 11.1841 15.6662 11.3804 16.4687 11.4862C16.8747 11.5435 17.2455 11.748 17.5106 12.0609C17.7757 12.3738 17.9165 12.7731 17.9063 13.183Z" stroke="black" stroke-width="1.2" stroke-linecap="round" stroke-linejoin="round"/>
</svg>
