<svg width="17" height="18" viewBox="0 0 17 18" fill="none" xmlns="http://www.w3.org/2000/svg">
<path fill-rule="evenodd" clip-rule="evenodd" d="M9.36016 1.53884C9.36016 1.0694 8.9796 0.688843 8.51016 0.688843C8.04071 0.688843 7.66016 1.0694 7.66016 1.53884L7.66016 8.18884H1.01016C0.540714 8.18884 0.160156 8.5694 0.160156 9.03884C0.160156 9.50829 0.540714 9.88884 1.01016 9.88884H7.66016L7.66016 16.5388C7.66016 17.0083 8.04071 17.3888 8.51016 17.3888C8.9796 17.3888 9.36016 17.0083 9.36016 16.5388V9.88884H16.0102C16.4796 9.88884 16.8602 9.50829 16.8602 9.03884C16.8602 8.5694 16.4796 8.18884 16.0102 8.18884H9.36016V1.53884Z" fill="black"/>
</svg>
