<svg width="27" height="27" viewBox="0 0 27 27" fill="none" xmlns="http://www.w3.org/2000/svg">
<path fill-rule="evenodd" clip-rule="evenodd" d="M1.70023 0.560791C0.984776 0.560791 0.404785 1.14078 0.404785 1.85624V14.1137C0.404785 14.4575 0.541476 14.7872 0.784746 15.0302L11.3128 25.5461L11.3134 25.5466C11.6613 25.8947 12.0743 26.1709 12.5289 26.3594C12.9838 26.5479 13.4714 26.645 13.9638 26.645C14.4562 26.645 14.9438 26.5479 15.3986 26.3594C15.8535 26.1708 16.2668 25.8944 16.6147 25.5461L25.4028 16.758L24.487 15.8421L25.4055 16.7553C26.1034 16.0532 26.4951 15.1036 26.4951 14.1137C26.4951 13.1238 26.1034 12.1741 25.4055 11.4721L25.4028 11.4694L14.8737 0.940218C14.6307 0.697275 14.3012 0.560791 13.9577 0.560791H1.70023ZM23.5691 14.9276L23.5681 14.9287L14.7822 23.7145L14.7817 23.715C14.6743 23.8225 14.5468 23.9078 14.4065 23.966C14.2662 24.0241 14.1157 24.0541 13.9638 24.0541C13.8119 24.0541 13.6614 24.0241 13.5211 23.966C13.3808 23.9078 13.2533 23.8225 13.1459 23.715L13.1449 23.714L2.99568 13.5766V3.15168H13.4211L23.5681 13.2987L23.5691 13.2997C23.7838 13.5162 23.9042 13.8088 23.9042 14.1137C23.9042 14.4186 23.7838 14.7111 23.5691 14.9276ZM7.829 6.46089C6.98729 6.46089 6.30495 7.14323 6.30495 7.98494C6.30495 8.82665 6.98729 9.509 7.829 9.509H7.84259C8.6843 9.509 9.36664 8.82665 9.36664 7.98494C9.36664 7.14323 8.6843 6.46089 7.84259 6.46089H7.829Z" fill="white"/>
</svg>
