<svg width="17" height="21" viewBox="0 0 17 21" fill="none" xmlns="http://www.w3.org/2000/svg">
<path d="M9.52446 12.3847H0.00976562V10.9555H9.52446C10.686 10.9555 11.6343 10.7649 12.3693 10.3838C13.1135 10.0027 13.6579 9.48087 14.0028 8.81843C14.3476 8.15598 14.52 7.40279 14.52 6.55886C14.52 5.76937 14.3476 5.03433 14.0028 4.35374C13.667 3.67314 13.1316 3.12413 12.3966 2.7067C11.6706 2.28927 10.7132 2.08055 9.52446 2.08055H4.44723V20.4566H2.77297V0.637695H9.52446C10.9764 0.637695 12.1969 0.887246 13.1861 1.38635C14.1752 1.87638 14.9193 2.56604 15.4184 3.45535C15.9266 4.33559 16.1807 5.36101 16.1807 6.53163C16.1807 7.74763 15.9266 8.79574 15.4184 9.67598C14.9193 10.5471 14.1752 11.2187 13.1861 11.6905C12.206 12.1533 10.9855 12.3847 9.52446 12.3847ZM9.44279 14.3993V15.8422H0.00976562V14.3993H9.44279Z" fill="#FF0000"/>
</svg>
