<svg width="20" height="20" viewBox="0 0 20 20" fill="none" xmlns="http://www.w3.org/2000/svg">
<path fill-rule="evenodd" clip-rule="evenodd" d="M2.41875 8.51366C2.41875 4.83074 5.40435 1.84514 9.08727 1.84514C12.7702 1.84514 15.7558 4.83074 15.7558 8.51366C15.7558 10.3164 15.0404 11.9521 13.8781 13.1523C13.8502 13.174 13.8234 13.1976 13.7978 13.2232C13.7721 13.2489 13.7485 13.2757 13.7268 13.3036C12.5265 14.4665 10.8905 15.1822 9.08727 15.1822C5.40435 15.1822 2.41875 12.1966 2.41875 8.51366ZM14.3738 15.0013C12.9326 16.1771 11.0923 16.8822 9.08727 16.8822C4.46546 16.8822 0.71875 13.1355 0.71875 8.51366C0.71875 3.89185 4.46546 0.145142 9.08727 0.145142C13.7091 0.145142 17.4558 3.89185 17.4558 8.51366C17.4558 10.5182 16.751 12.3581 15.5758 13.7991L19.6825 17.9058C20.0144 18.2378 20.0144 18.7759 19.6825 19.1079C19.3505 19.4398 18.8123 19.4398 18.4804 19.1079L14.3738 15.0013Z" fill="black"/>
</svg>
