<svg width="14" height="15" viewBox="0 0 14 15" fill="none" xmlns="http://www.w3.org/2000/svg">
<path fill-rule="evenodd" clip-rule="evenodd" d="M1.78458 6.62307C1.78458 4.25666 3.70293 2.33831 6.06934 2.33831C8.43575 2.33831 10.3541 4.25666 10.3541 6.62307C10.3541 7.77442 9.89999 8.81971 9.1611 9.58959C9.13838 9.60804 9.1164 9.62784 9.09526 9.64898C9.07411 9.67013 9.05432 9.69211 9.03586 9.71482C8.26598 10.4537 7.22069 10.9078 6.06934 10.9078C3.70293 10.9078 1.78458 8.98947 1.78458 6.62307ZM9.65752 11.4133C8.65773 12.1634 7.41543 12.6078 6.06934 12.6078C2.76405 12.6078 0.0845795 9.92836 0.0845795 6.62307C0.0845795 3.31777 2.76405 0.638306 6.06934 0.638306C9.37463 0.638306 12.0541 3.31777 12.0541 6.62307C12.0541 7.96916 11.6097 9.21146 10.8596 10.2112L13.4953 12.847C13.8273 13.1789 13.8273 13.7171 13.4953 14.049C13.1634 14.381 12.6252 14.381 12.2932 14.049L9.65752 11.4133Z" fill="#B9B9B9"/>
</svg>
