<svg width="24" height="25" viewBox="0 0 24 25" fill="none" xmlns="http://www.w3.org/2000/svg">
<path d="M6 2.98242L3 6.98242V20.9824C3 21.5129 3.21071 22.0216 3.58579 22.3966C3.96086 22.7717 4.46957 22.9824 5 22.9824H19C19.5304 22.9824 20.0391 22.7717 20.4142 22.3966C20.7893 22.0216 21 21.5129 21 20.9824V6.98242L18 2.98242H6Z" stroke="black" stroke-width="1.7" stroke-linecap="round" stroke-linejoin="round"/>
<path d="M3 6.98242H21" stroke="black" stroke-width="1.7" stroke-linecap="round" stroke-linejoin="round"/>
<path d="M16 10.9824C16 12.0433 15.5786 13.0607 14.8284 13.8108C14.0783 14.561 13.0609 14.9824 12 14.9824C10.9391 14.9824 9.92172 14.561 9.17157 13.8108C8.42143 13.0607 8 12.0433 8 10.9824" stroke="black" stroke-width="1.7" stroke-linecap="round" stroke-linejoin="round"/>
</svg>
