<svg width="42" height="42" viewBox="0 0 42 42" fill="none" xmlns="http://www.w3.org/2000/svg">
<path fill-rule="evenodd" clip-rule="evenodd" d="M11.0239 20.6659C16.2117 18.4836 19.6711 17.0449 21.402 16.3498C26.3441 14.3651 27.371 14.0203 28.0404 14.0089C28.1876 14.0064 28.5168 14.0416 28.73 14.2087C28.91 14.3497 28.9595 14.5403 28.9832 14.674C29.007 14.8077 29.0365 15.1124 29.013 15.3504C28.7452 18.0673 27.5864 24.6605 26.9968 27.7035C26.7474 28.9911 26.2562 29.4228 25.7806 29.4651C24.7472 29.5569 23.9625 28.8057 22.9615 28.1722C21.3953 27.1809 20.5104 26.5638 18.9901 25.5964C17.2331 24.4785 18.3721 23.8641 19.3734 22.86C19.6354 22.5972 24.1888 18.5984 24.2769 18.2356C24.2879 18.1902 24.2982 18.0211 24.1941 17.9318C24.0901 17.8425 23.9365 17.8731 23.8257 17.8974C23.6686 17.9318 21.1664 19.5286 16.3193 22.6877C15.609 23.1586 14.9657 23.388 14.3894 23.376C13.754 23.3627 12.5317 23.0291 11.6231 22.7439C10.5086 22.3942 9.62287 22.2092 9.69999 21.6152C9.74017 21.3058 10.1815 20.9894 11.0239 20.6659Z" fill="black"/>
<circle cx="20.5159" cy="20.9046" r="20.2659" stroke="black" stroke-width="0.5"/>
</svg>
