<svg width="24" height="25" viewBox="0 0 24 25" fill="none" xmlns="http://www.w3.org/2000/svg">
<path d="M16 3.04199H1V16.042H16V3.04199Z" stroke="black" stroke-width="1.7" stroke-linecap="round" stroke-linejoin="round"/>
<path d="M16 8.04199H20L23 11.042V16.042H16V8.04199Z" stroke="black" stroke-width="1.7" stroke-linecap="round" stroke-linejoin="round"/>
<path d="M5.5 21.042C6.88071 21.042 8 19.9227 8 18.542C8 17.1613 6.88071 16.042 5.5 16.042C4.11929 16.042 3 17.1613 3 18.542C3 19.9227 4.11929 21.042 5.5 21.042Z" stroke="black" stroke-width="1.7" stroke-linecap="round" stroke-linejoin="round"/>
<path d="M18.5 21.042C19.8807 21.042 21 19.9227 21 18.542C21 17.1613 19.8807 16.042 18.5 16.042C17.1193 16.042 16 17.1613 16 18.542C16 19.9227 17.1193 21.042 18.5 21.042Z" stroke="black" stroke-width="1.7" stroke-linecap="round" stroke-linejoin="round"/>
</svg>
