<svg width="25" height="25" viewBox="0 0 25 25" fill="none" xmlns="http://www.w3.org/2000/svg">
<g clip-path="url(#clip0_104_7864)">
<path d="M16.4395 3.55078H1.43945V16.5508H16.4395V3.55078Z" stroke="#FF0000" stroke-width="1.7" stroke-linecap="round" stroke-linejoin="round"/>
<path d="M16.4395 8.55078H20.4395L23.4395 11.5508V16.5508H16.4395V8.55078Z" stroke="#FF0000" stroke-width="1.7" stroke-linecap="round" stroke-linejoin="round"/>
<path d="M5.93945 21.5508C7.32017 21.5508 8.43945 20.4315 8.43945 19.0508C8.43945 17.6701 7.32017 16.5508 5.93945 16.5508C4.55874 16.5508 3.43945 17.6701 3.43945 19.0508C3.43945 20.4315 4.55874 21.5508 5.93945 21.5508Z" stroke="#FF0000" stroke-width="1.7" stroke-linecap="round" stroke-linejoin="round"/>
<path d="M18.9395 21.5508C20.3202 21.5508 21.4395 20.4315 21.4395 19.0508C21.4395 17.6701 20.3202 16.5508 18.9395 16.5508C17.5587 16.5508 16.4395 17.6701 16.4395 19.0508C16.4395 20.4315 17.5587 21.5508 18.9395 21.5508Z" stroke="#FF0000" stroke-width="1.7" stroke-linecap="round" stroke-linejoin="round"/>
</g>
<defs>
<clipPath id="clip0_104_7864">
<rect width="24" height="24" fill="white" transform="translate(0.439453 0.550781)"/>
</clipPath>
</defs>
</svg>
