<svg width="42" height="42" viewBox="0 0 42 42" fill="none" xmlns="http://www.w3.org/2000/svg">
<path d="M10.582 30.8429L12.0553 25.493C11.1445 23.9227 10.6666 22.1444 10.6716 20.3264C10.6716 14.6297 15.3304 9.99805 21.0493 9.99805C23.8266 9.99805 26.4347 11.073 28.3908 13.0247C30.3518 14.9765 31.4319 17.5722 31.4269 20.3313C31.4269 26.028 26.7682 30.6597 21.0443 30.6597H21.0393C19.3022 30.6597 17.595 30.2237 16.077 29.4014L10.582 30.8429ZM16.3408 27.5339L16.6543 27.7222C17.9783 28.5048 19.4964 28.916 21.0443 28.9209H21.0493C25.8026 28.9209 29.6749 25.072 29.6749 20.3363C29.6749 18.0428 28.779 15.8879 27.1514 14.2631C25.5238 12.6383 23.3538 11.7467 21.0493 11.7467C16.296 11.7417 12.4236 15.5907 12.4236 20.3264C12.4236 21.9462 12.8766 23.5264 13.7426 24.8936L13.9467 25.2206L13.0757 28.3859L16.3408 27.5339Z" fill="black"/>
<path d="M10.9453 30.4801L12.3688 25.3134C11.4878 23.8026 11.0249 22.0837 11.0249 20.3301C11.0299 14.8315 15.5244 10.3584 21.0492 10.3584C23.732 10.3584 26.2455 11.3987 28.1369 13.281C30.0282 15.1634 31.0685 17.67 31.0685 20.335C31.0685 25.8336 26.569 30.3067 21.0492 30.3067H21.0442C19.3669 30.3067 17.7194 29.8856 16.2561 29.0931L10.9453 30.4801Z" fill="white"/>
<path d="M10.582 30.8429L12.0553 25.493C11.1445 23.9227 10.6666 22.1444 10.6716 20.3264C10.6716 14.6297 15.3304 9.99805 21.0493 9.99805C23.8266 9.99805 26.4347 11.073 28.3908 13.0247C30.3518 14.9765 31.4319 17.5722 31.4269 20.3313C31.4269 26.028 26.7682 30.6597 21.0443 30.6597H21.0393C19.3022 30.6597 17.595 30.2237 16.077 29.4014L10.582 30.8429ZM16.3408 27.5339L16.6543 27.7222C17.9783 28.5048 19.4964 28.916 21.0443 28.9209H21.0493C25.8026 28.9209 29.6749 25.072 29.6749 20.3363C29.6749 18.0428 28.779 15.8879 27.1514 14.2631C25.5238 12.6383 23.3538 11.7467 21.0493 11.7467C16.296 11.7417 12.4236 15.5907 12.4236 20.3264C12.4236 21.9462 12.8766 23.5264 13.7426 24.8936L13.9467 25.2206L13.0757 28.3859L16.3408 27.5339Z" fill="black"/>
<path fill-rule="evenodd" clip-rule="evenodd" d="M18.4551 16.0055C18.261 15.5745 18.0569 15.5646 17.8728 15.5596C17.7235 15.5547 17.5493 15.5547 17.3751 15.5547C17.2008 15.5547 16.9221 15.6191 16.6832 15.8767C16.4443 16.1343 15.7773 16.7584 15.7773 18.0315C15.7773 19.2996 16.7081 20.5281 16.8375 20.7015C16.9669 20.8749 18.6343 23.5647 21.2673 24.6C23.4573 25.462 23.9053 25.2886 24.3781 25.244C24.8509 25.1994 25.9111 24.6198 26.1301 24.0155C26.3441 23.4112 26.3441 22.896 26.2794 22.787C26.2147 22.678 26.0405 22.6136 25.7817 22.4848C25.5229 22.356 24.2487 21.7319 24.0098 21.6427C23.7709 21.5585 23.5967 21.5139 23.4274 21.7715C23.2532 22.0291 22.7555 22.6087 22.6062 22.782C22.4569 22.9554 22.3026 22.9752 22.0437 22.8464C21.7849 22.7176 20.9487 22.4452 19.9583 21.5634C19.1868 20.8798 18.6642 20.0328 18.5149 19.7752C18.3655 19.5176 18.4999 19.3789 18.6293 19.2501C18.7438 19.1362 18.8881 18.9479 19.0176 18.7993C19.147 18.6507 19.1918 18.5417 19.2764 18.3684C19.361 18.195 19.3212 18.0464 19.2565 17.9176C19.1918 17.7937 18.6841 16.5157 18.4551 16.0055Z" fill="black"/>
<circle cx="21.0003" cy="20.9046" r="20.2659" stroke="black" stroke-width="0.5"/>
</svg>
