<svg width="143" height="66" viewBox="0 0 143 66" fill="none" xmlns="http://www.w3.org/2000/svg">
<g clip-path="url(#clip0_1_177)">
<path fill-rule="evenodd" clip-rule="evenodd" d="M15.7751 29.1269H11.2884V40.0353H15.7751V29.1269ZM25.685 27.9142V19.8296L20.8765 24.23L25.685 27.9142ZM41.6038 9.49294H36.9678V20.4071H41.6038V9.49294ZM50.7955 28.2723V21.5794L46.8661 24.998L50.7955 28.2723ZM62.1071 9.49294V40.0353H66.7029V9.49294H62.1071ZM76.0957 5.68741V0.253418H94.1172L98.1386 5.21966V14.4592L85.0232 40.0353H98.1673V49.2748H78.0604L74.9812 45.0651L70.753 49.2748H58.2293L52.4845 43.7542V49.2748H41.6038V29.6409H36.9678V49.2748H25.685V43.5001L19.6644 49.2748H-0.00012207V0.253418H19.6644L25.685 5.93572V0.253418H44.9243L51.64 6.60559L58.2236 0.253418H70.3394L76.0957 5.68741ZM87.8956 9.49294H77.8824V28.9537L87.8956 9.49294ZM15.7751 9.49294H11.2884V19.8874H15.7751V9.49294Z" fill="white"/>
<path d="M116.093 9.13796L115.884 8.59096H115.298H109.427H108.577V9.44096V18.6805V19.5305H109.427H116.402V26.9834H109.427H108.577V27.8334V40.0064V40.8564H109.427H114.822H115.42L115.622 40.293L121.499 23.8813L121.605 23.5854L121.493 23.2917L116.093 9.13796ZM127.914 14.3303L131.418 1.10342H140.92L132.877 23.3052L132.772 23.5953L132.877 23.8852L141.786 48.3844H132.181L127.892 34.6937L127.063 32.0481L126.267 34.7036L122.163 48.3844H98.9433L98.9822 1.10342H122.702L126.272 14.3341L127.1 17.4036L127.914 14.3303Z" stroke="white" stroke-width="1.7"/>
<path fill-rule="evenodd" clip-rule="evenodd" d="M95.8292 59.8542H94.8353V55.4134H95.8292V59.8542ZM96.7828 61.8118L98.2363 60.3104V54.9341L96.7656 53.4558H92.3938V65.2535H94.8181V61.7887L96.7828 61.8118ZM83.0297 53.4211V63.2381H82.0301V53.4211H79.6058V63.7405L81.0822 65.2189H83.9546L85.4253 63.7405V53.4211H83.0297ZM70.3567 63.2959H69.3571V55.4134H70.3567V63.2959ZM72.7752 54.9341L71.3046 53.4558H68.4034L66.9327 54.9341V63.7752L68.4034 65.2593H71.3046L72.7752 63.7752V54.9341ZM57.6951 65.2535H60.1194V60.218L59.1715 59.3633L60.1194 58.5029V54.9341L58.6487 53.4558H54.2769V65.2535H56.7012V60.3104H57.6951V65.2535ZM56.7012 58.3758V55.4134H57.6951V58.3758H56.7012ZM44.5165 59.346V61.3036H45.022V63.2959H44.0282V55.4134H45.022V58.3758H47.4463V54.911L45.9584 53.4558H43.086L41.6153 54.9341V63.7752L43.086 65.2535H45.9584L47.4463 63.7752V59.3518L44.5165 59.346Z" fill="white"/>
</g>
<defs>
<clipPath id="clip0_1_177">
<rect width="143" height="65" fill="white" transform="translate(-0.00012207 0.253418)"/>
</clipPath>
</defs>
</svg>
