<svg width="103" height="36" viewBox="0 0 103 36" fill="none" xmlns="http://www.w3.org/2000/svg">
<g clip-path="url(#clip0_1_509)">
<path fill-rule="evenodd" clip-rule="evenodd" d="M12.1126 20.2988H8.91234V28.0186H12.1126V20.2988ZM19.1812 19.4406V13.7192L15.7514 16.8333L19.1812 19.4406ZM30.5359 6.40397H27.2291V14.1279H30.5359V6.40397ZM37.0922 19.6939V14.9575L34.2894 17.3768L37.0922 19.6939ZM45.1606 6.40397V28.0186H48.4388V6.40397H45.1606ZM55.1385 3.71083V-0.134766H67.993L70.8614 3.3798V9.91854L61.5063 28.0186H70.8819V34.5573H56.5399L54.3436 31.5781L51.3277 34.5573H42.3947L38.297 30.6504V34.5573H30.5359V20.6625H27.2291V34.5573H19.1812V30.4706L14.8868 34.5573H0.860352V-0.134766H14.8868L19.1812 3.88656V-0.134766H32.9044L37.6946 4.36061L42.3906 -0.134766H51.0326L55.1385 3.71083ZM63.5552 6.40397H56.4129V20.1762L63.5552 6.40397ZM12.1126 6.40397H8.91234V13.76H12.1126V6.40397Z" fill="#FF0000"/>
<path fill-rule="evenodd" clip-rule="evenodd" d="M83.1007 6.36719H78.9129V12.9059H84.494V19.3834H78.9129V27.9981H82.7606L86.9526 16.3837L83.1007 6.36719ZM70.8568 -0.134766H88.8457L91.5133 9.67334L94.1318 -0.134766H102.241L96.2093 16.3837L102.86 34.5287H94.6972L91.5051 24.4182L88.4482 34.5287H70.8281L70.8568 -0.134766Z" fill="#192864"/>
</g>
<defs>
<clipPath id="clip0_1_509">
<rect width="102" height="35" fill="white" transform="translate(0.860352 0.0332031)"/>
</clipPath>
</defs>
</svg>
